<?xml version="1.0" encoding="UTF-8"?>
<!DOCTYPE svg PUBLIC "-//W3C//DTD SVG 1.1//EN" "http://www.w3.org/Graphics/SVG/1.1/DTD/svg11.dtd">
<!-- Creator: CorelDRAW 2019 (64-Bit) -->
<svg xmlns="http://www.w3.org/2000/svg" xml:space="preserve" width="173px" height="240px" version="1.1" style="shape-rendering:geometricPrecision; text-rendering:geometricPrecision; image-rendering:optimizeQuality; fill-rule:evenodd; clip-rule:evenodd"
viewBox="0 0 173 239.75"
 xmlns:xlink="http://www.w3.org/1999/xlink"
 xmlns:xodm="http://www.corel.com/coreldraw/odm/2003">
 <defs>
  <style type="text/css">
   <![CDATA[
    .fil5 {fill:#FEFEFE}
    .fil7 {fill:black}
    .fil12 {fill:#00853A}
    .fil3 {fill:#00923F}
    .fil11 {fill:#016E30}
    .fil2 {fill:#28166F}
    .fil9 {fill:#7F7A00}
    .fil4 {fill:#DA251D}
    .fil0 {fill:#F8C300}
    .fil10 {fill:#F9C900}
    .fil6 {fill:#FFF500}
    .fil8 {fill:#332C2B;fill-rule:nonzero}
    .fil1 {fill:black;fill-rule:nonzero}
    .fil14 {fill:#DA251D;fill-rule:nonzero}
    .fil13 {fill:#FFF500;fill-rule:nonzero}
   ]]>
  </style>
 </defs>
 <g id="Layer_x0020_1">
  <metadata id="CorelCorpID_0Corel-Layer"/>
  <path class="fil0" d="M0.85 0.85l171.3 0 0 160.52c0,38.03 -54.53,61.01 -85.65,77.42 -31.12,-16.41 -85.65,-39.39 -85.65,-77.42l0 -160.52z"/>
  <path class="fil1" d="M0.85 0l172.15 0 0 161.37c0,34.33 -43.37,56.38 -74.99,72.46 -3.97,2.01 -7.76,3.94 -11.12,5.71l-0.39 0.21 -0.39 -0.21c-3.36,-1.77 -7.15,-3.7 -11.12,-5.71 -31.62,-16.08 -74.99,-38.13 -74.99,-72.46l0 -161.37 0.85 0zm170.46 1.69l-169.62 0 0 159.68c0,33.29 42.84,55.07 74.07,70.95 3.74,1.9 7.31,3.72 10.74,5.52 3.43,-1.8 7,-3.62 10.74,-5.52 31.23,-15.88 74.07,-37.66 74.07,-70.95l0 -159.68z"/>
  <path class="fil2" d="M112.66 35.95l52.31 0 0 121.93c0,25.52 -26.78,43.63 -52.31,57.41l0 -179.34z"/>
  <path class="fil1" d="M112.66 35.11l53.16 0 0 122.77c0,13.02 -6.8,24.13 -16.85,33.72 -9.95,9.5 -23.09,17.52 -35.91,24.43l-1.25 0.67 0 -181.59 0.85 0zm51.47 1.69l-50.63 0 0 177.07c12.32,-6.7 24.81,-14.43 34.31,-23.49 9.73,-9.29 16.32,-20.01 16.32,-32.5l0 -121.08z"/>
  <path class="fil3" d="M8.03 35.95l52.31 0 0 179.34c-25.53,-13.78 -52.31,-31.89 -52.31,-57.41l0 -121.93z"/>
  <path class="fil1" d="M8.03 35.11l53.16 0 0 181.59 -1.25 -0.67c-12.82,-6.91 -25.96,-14.93 -35.91,-24.43 -10.05,-9.59 -16.85,-20.7 -16.85,-33.72l0 -122.77 0.85 0zm51.47 1.69l-50.63 0 0 121.08c0,12.49 6.59,23.21 16.32,32.5 9.5,9.07 21.99,16.79 34.31,23.49l0 -177.07z"/>
  <path class="fil4" d="M60.34 35.95l52.32 0 0 179.34c-9.35,5.04 -18.52,9.5 -26.16,13.53 -7.64,-4.03 -16.81,-8.49 -26.16,-13.53l0 -179.34z"/>
  <path class="fil1" d="M60.34 35.11l53.16 0 0 180.68 -0.44 0.24c-5.53,2.98 -10.93,5.73 -15.99,8.3 -3.64,1.85 -7.11,3.62 -10.18,5.24l-0.39 0.2 -0.39 -0.2c-3.07,-1.62 -6.54,-3.39 -10.18,-5.24 -5.06,-2.57 -10.46,-5.32 -15.99,-8.3l-0.44 -0.24 0 -180.68 0.84 0zm51.47 1.69l-50.62 0 0 177.99c5.27,2.83 10.55,5.51 15.51,8.03 3.4,1.74 6.66,3.4 9.8,5.04 3.14,-1.64 6.4,-3.3 9.8,-5.04 4.96,-2.52 10.24,-5.2 15.51,-8.03l0 -177.99z"/>
  <rect class="fil5" x="8.03" y="9.3" width="156.95" height="21.29"/>
  <path class="fil1" d="M8.03 8.46l157.79 0 0 22.98 -158.64 0 0 -22.98 0.85 0zm156.1 1.69l-155.26 0 0 19.6 155.26 0 0 -19.6z"/>
  <rect class="fil6" x="84.37" y="59.88" width="4.25" height="109.02" rx="2.13" ry="51.79"/>
  <path class="fil7" d="M86.5 58.19c1.05,0 2.01,0.43 2.7,1.12 0.69,0.69 1.12,1.65 1.12,2.7l0 104.77c0,1.05 -0.43,2 -1.12,2.69 -0.69,0.7 -1.65,1.12 -2.7,1.12 -1.05,0 -2.01,-0.42 -2.7,-1.12 -0.69,-0.69 -1.12,-1.64 -1.12,-2.69l0 -104.77c0,-1.05 0.43,-2.01 1.12,-2.7 0.69,-0.69 1.65,-1.12 2.7,-1.12zm0 1.69c1.17,0 2.13,0.96 2.13,2.13l0 104.77c0,1.17 -0.96,2.12 -2.13,2.12 -1.17,0 -2.13,-0.95 -2.13,-2.12l0 -104.77c0,-1.17 0.96,-2.13 2.13,-2.13z"/>
  <path class="fil8" d="M86.53 42.8l62.56 17.08 -125.18 0c20.86,-5.7 41.71,-11.46 62.59,-17.09l0.03 0.01zm30.75 8.66l-30.78 -8.41 -60.67 16.58 121.34 0 -29.89 -8.17z"/>
  <path class="fil6" d="M141.7 61.5c3.61,0 7.59,9.64 -0.25,6.1l-0.51 -0.23c-0.86,1.26 -2.67,1.77 -5.69,0.23l-0.51 -0.26c-1.27,1.29 -3.83,1.77 -6.62,0.26 -1.27,1.14 -3.6,1.41 -5.97,-0.18 -1,1.29 -2.98,1.69 -5.1,-0.02l-0.94 -0.75c-0.73,1.83 -3.08,2.68 -4.77,0.99l-0.79 -0.79c-0.76,2.1 -4.53,2.36 -6.35,0.24 -0.94,1.96 -4.3,1.95 -5.75,-0.02 -0.88,2.14 -4.09,1.79 -5.62,-0.04 -1.22,1.85 -4.32,1.87 -6.33,0.78 -2.01,1.09 -5.11,1.07 -6.33,-0.78 -1.53,1.83 -4.74,2.18 -5.62,0.04 -1.45,1.97 -4.81,1.98 -5.75,0.02 -1.82,2.12 -5.59,1.86 -6.35,-0.24l-0.79 0.79c-1.69,1.69 -4.04,0.84 -4.77,-0.99l-0.94 0.75c-2.12,1.71 -4.1,1.31 -5.1,0.02 -2.37,1.59 -4.7,1.32 -5.97,0.18 -2.79,1.51 -5.35,1.03 -6.62,-0.26l-0.51 0.26c-3.02,1.54 -4.83,1.03 -5.69,-0.23l-0.51 0.23c-7.84,3.54 -3.86,-6.1 -0.25,-6.1l110.4 0z"/>
  <path class="fil8" d="M141.7 61.37c1.55,0 3.16,1.69 3.93,3.42 0.32,0.71 0.5,1.43 0.48,2.05 -0.03,0.64 -0.27,1.16 -0.8,1.44 -0.72,0.39 -1.97,0.31 -3.91,-0.57l-0.42 -0.18c-0.49,0.66 -1.24,1.1 -2.29,1.14 -0.92,0.04 -2.08,-0.24 -3.5,-0.96l-0.43 -0.22c-0.7,0.68 -1.74,1.12 -2.98,1.17 -1.09,0.04 -2.34,-0.22 -3.64,-0.91 -0.7,0.59 -1.68,0.94 -2.8,0.91 -0.98,-0.03 -2.07,-0.35 -3.16,-1.07 -0.52,0.62 -1.27,1.02 -2.14,1.07 -0.89,0.05 -1.92,-0.26 -2.98,-1.09l-0.89 -0.72c-0.17,0.35 -0.39,0.67 -0.65,0.93 -0.41,0.41 -0.91,0.69 -1.46,0.82 -0.54,0.13 -1.13,0.1 -1.7,-0.12 -0.39,-0.16 -0.76,-0.4 -1.11,-0.75l-0.65 -0.66c-0.15,0.32 -0.36,0.59 -0.62,0.82 -0.49,0.41 -1.15,0.67 -1.87,0.76 -0.71,0.09 -1.48,0.01 -2.2,-0.25 -0.62,-0.23 -1.21,-0.59 -1.68,-1.09 -0.18,0.31 -0.41,0.56 -0.69,0.77 -0.5,0.36 -1.14,0.57 -1.82,0.6 -0.66,0.03 -1.36,-0.1 -1.99,-0.4 -0.47,-0.23 -0.9,-0.55 -1.25,-0.96 -0.15,0.3 -0.35,0.55 -0.59,0.74 -0.45,0.37 -1.02,0.57 -1.62,0.61 -0.6,0.03 -1.24,-0.08 -1.84,-0.33 -0.59,-0.25 -1.15,-0.62 -1.58,-1.1 -0.62,0.82 -1.59,1.26 -2.67,1.39 -1.23,0.15 -2.6,-0.11 -3.68,-0.68 -1.07,0.57 -2.44,0.83 -3.68,0.68 -1.07,-0.13 -2.05,-0.57 -2.67,-1.39 -0.43,0.48 -0.99,0.85 -1.58,1.1 -0.6,0.25 -1.24,0.36 -1.84,0.33 -0.6,-0.04 -1.17,-0.24 -1.62,-0.61 -0.24,-0.19 -0.44,-0.44 -0.59,-0.74 -0.35,0.41 -0.78,0.73 -1.25,0.96 -0.63,0.3 -1.33,0.43 -1.99,0.4 -0.68,-0.03 -1.32,-0.24 -1.82,-0.6 -0.28,-0.21 -0.51,-0.46 -0.69,-0.77 -0.47,0.5 -1.06,0.86 -1.68,1.09 -0.72,0.26 -1.49,0.34 -2.2,0.25 -0.72,-0.09 -1.38,-0.35 -1.87,-0.76 -0.26,-0.23 -0.47,-0.5 -0.62,-0.82l-0.65 0.66c-0.35,0.35 -0.72,0.59 -1.11,0.75 -0.57,0.22 -1.16,0.25 -1.7,0.12 -0.55,-0.13 -1.05,-0.41 -1.46,-0.82 -0.26,-0.26 -0.48,-0.58 -0.65,-0.93l-0.89 0.72c-1.06,0.83 -2.09,1.14 -2.98,1.09 -0.87,-0.05 -1.62,-0.45 -2.14,-1.07 -1.09,0.72 -2.18,1.04 -3.16,1.07 -1.12,0.03 -2.1,-0.32 -2.8,-0.91 -1.3,0.69 -2.55,0.95 -3.64,0.91 -1.24,-0.05 -2.28,-0.49 -2.98,-1.17l-0.43 0.22c-1.42,0.72 -2.58,1 -3.5,0.96 -1.05,-0.04 -1.8,-0.48 -2.29,-1.14l-0.42 0.18c-1.94,0.88 -3.19,0.96 -3.91,0.57 -0.53,-0.28 -0.77,-0.8 -0.8,-1.44 -0.02,-0.62 0.16,-1.34 0.48,-2.05 0.77,-1.73 2.38,-3.42 3.93,-3.42l110.4 0zm3.69 3.52c-0.73,-1.65 -2.25,-3.26 -3.69,-3.26l-110.4 0c-1.44,0 -2.96,1.61 -3.69,3.26 -0.31,0.68 -0.48,1.36 -0.46,1.94 0.02,0.55 0.23,0.99 0.66,1.23 0.65,0.35 1.82,0.26 3.69,-0.58l0.61 -0.28 0.06 0.09c0.44,0.65 1.14,1.09 2.15,1.13 0.88,0.03 2,-0.24 3.37,-0.94l0.6 -0.3 0.06 0.07c0.66,0.66 1.67,1.11 2.88,1.15 1.07,0.05 2.31,-0.22 3.59,-0.92l0.08 -0.04 0.07 0.06c0.65,0.58 1.59,0.94 2.68,0.9 0.96,-0.02 2.04,-0.36 3.13,-1.09l0.1 -0.06 0.1 0.13c0.48,0.59 1.17,0.98 2,1.02 0.83,0.05 1.8,-0.25 2.8,-1.03l1.16 -0.93 0.06 0.16c0.16,0.38 0.39,0.72 0.67,1 0.37,0.37 0.83,0.63 1.33,0.75 0.5,0.12 1.03,0.09 1.55,-0.11 0.35,-0.15 0.7,-0.37 1.02,-0.69l0.93 -0.94 0.07 0.19c0.13,0.35 0.34,0.65 0.62,0.89 0.45,0.38 1.06,0.62 1.73,0.71 0.67,0.08 1.4,0 2.09,-0.24 0.63,-0.23 1.23,-0.62 1.69,-1.16l0.13 -0.15 0.09 0.18c0.16,0.34 0.4,0.62 0.69,0.84 0.47,0.34 1.06,0.52 1.68,0.55 0.62,0.03 1.28,-0.09 1.87,-0.38 0.49,-0.23 0.94,-0.58 1.28,-1.04l0.14 -0.19 0.08 0.21c0.15,0.35 0.36,0.63 0.62,0.85 0.4,0.33 0.91,0.5 1.47,0.54 0.56,0.03 1.16,-0.08 1.73,-0.31 0.6,-0.25 1.16,-0.64 1.59,-1.15l0.11 -0.13 0.09 0.14c0.56,0.84 1.52,1.29 2.58,1.42 1.21,0.14 2.55,-0.12 3.59,-0.69l0.06 -0.03 0.06 0.03c1.04,0.57 2.38,0.83 3.59,0.69 1.06,-0.13 2.02,-0.58 2.58,-1.42l0.09 -0.14 0.11 0.13c0.43,0.51 0.99,0.9 1.59,1.15 0.57,0.23 1.17,0.34 1.73,0.31 0.56,-0.04 1.07,-0.21 1.47,-0.54 0.26,-0.22 0.47,-0.5 0.62,-0.85l0.08 -0.21 0.14 0.19c0.34,0.46 0.79,0.81 1.28,1.04 0.59,0.29 1.25,0.41 1.87,0.38 0.62,-0.03 1.21,-0.21 1.68,-0.55 0.29,-0.22 0.53,-0.5 0.69,-0.84l0.09 -0.18 0.13 0.15c0.46,0.54 1.06,0.93 1.69,1.16 0.69,0.24 1.42,0.32 2.09,0.24 0.67,-0.09 1.28,-0.33 1.73,-0.71 0.28,-0.24 0.49,-0.54 0.62,-0.89l0.07 -0.19 0.93 0.94c0.32,0.32 0.67,0.54 1.02,0.69 0.52,0.2 1.06,0.23 1.55,0.11 0.5,-0.12 0.96,-0.38 1.33,-0.75 0.28,-0.28 0.51,-0.62 0.67,-1l0.06 -0.16c0.38,0.31 0.77,0.62 1.16,0.93 1,0.78 1.97,1.08 2.8,1.03 0.83,-0.04 1.52,-0.43 2,-1.02l0.1 -0.13 0.1 0.06c1.09,0.73 2.17,1.07 3.13,1.09 1.09,0.04 2.03,-0.32 2.68,-0.9l0.07 -0.06 0.08 0.04c1.28,0.7 2.52,0.97 3.59,0.92 1.21,-0.04 2.22,-0.49 2.88,-1.15l0.06 -0.07 0.6 0.3c1.37,0.7 2.49,0.97 3.37,0.94 1.01,-0.04 1.71,-0.48 2.15,-1.13l0.06 -0.09 0.61 0.28c1.87,0.84 3.04,0.93 3.69,0.58 0.43,-0.24 0.64,-0.68 0.66,-1.23 0.02,-0.58 -0.15,-1.26 -0.46,-1.94z"/>
  <path class="fil9" d="M146.89 59.8c2.96,2.33 2.38,9.65 -5.46,6.1l-0.51 -0.23c-0.87,1.26 -2.67,1.77 -5.69,0.23l-0.51 -0.26c-1.27,1.3 -3.83,1.77 -6.62,0.26 -1.27,1.14 -3.6,1.42 -5.96,-0.17 -1.01,1.28 -2.98,1.69 -5.11,-0.02l-0.93 -0.76c-0.73,1.83 -3.08,2.69 -4.77,0.99l-0.79 -0.78c-0.76,2.1 -4.53,2.36 -6.35,0.23 -0.94,1.97 -4.3,1.95 -5.74,-0.01 -0.88,2.14 -4.1,1.79 -5.62,-0.04 -1.23,1.85 -4.32,1.87 -6.33,0.77 -2.01,1.1 -5.1,1.08 -6.33,-0.77 -1.52,1.83 -4.74,2.18 -5.62,0.04 -1.44,1.96 -4.8,1.98 -5.74,0.01 -1.82,2.13 -5.59,1.87 -6.35,-0.23l-0.79 0.78c-1.69,1.7 -4.04,0.84 -4.77,-0.99l-0.93 0.76c-2.13,1.71 -4.1,1.3 -5.11,0.02 -2.36,1.59 -4.69,1.31 -5.96,0.17 -2.79,1.51 -5.35,1.04 -6.62,-0.26l-0.51 0.26c-3.02,1.54 -4.82,1.03 -5.69,-0.23l-0.51 0.23c-7.84,3.55 -8.42,-3.77 -5.46,-6.1l120.78 0z"/>
  <path class="fil6" d="M31.15 65.24c-8.73,3.52 -8.54,-4.87 -4.47,-5.98l59.82 -16.34 -55.35 22.32z"/>
  <path class="fil8" d="M31.21 65.4c-3.05,1.23 -5.04,1.02 -6.19,0.18 -0.51,-0.38 -0.86,-0.9 -1.04,-1.47 -0.19,-0.56 -0.22,-1.19 -0.11,-1.8 0.25,-1.42 1.25,-2.8 2.77,-3.21l59.82 -16.34c0.08,-0.03 0.18,0.03 0.2,0.11 0.03,0.09 -0.02,0.17 -0.1,0.21l-55.35 22.32zm-5.99 -0.09c1.06,0.78 2.95,0.95 5.86,-0.23l52.68 -21.24 -57.03 15.58c-1.38,0.38 -2.3,1.64 -2.53,2.95 -0.09,0.56 -0.07,1.13 0.1,1.64 0.16,0.51 0.47,0.96 0.92,1.3z"/>
  <path class="fil6" d="M37.39 65.24c-7.74,3.52 -7.57,-4.87 -3.96,-5.98l53.07 -16.34 -49.11 22.32z"/>
  <path class="fil8" d="M37.46 65.39c-2.58,1.18 -4.32,1.05 -5.36,0.3 -0.5,-0.35 -0.84,-0.85 -1.03,-1.42 -0.19,-0.55 -0.25,-1.18 -0.17,-1.79 0.18,-1.49 1.08,-2.95 2.48,-3.38l53.07 -16.34c0.09,-0.03 0.18,0.02 0.21,0.11 0.03,0.08 -0.01,0.17 -0.09,0.2l-49.11 22.32zm-5.16 0.03c0.95,0.68 2.57,0.78 5.02,-0.33l46.71 -21.23 -50.55 15.56c-1.26,0.39 -2.08,1.73 -2.25,3.1 -0.06,0.56 -0.02,1.14 0.16,1.64 0.17,0.51 0.47,0.95 0.91,1.26z"/>
  <path class="fil6" d="M44.93 65.06c-6.57,3.5 -12.11,-2.83 -3.36,-5.98l44.93 -16.16 -41.57 22.14z"/>
  <path class="fil8" d="M45.01 65.21c-2.57,1.37 -4.99,1.26 -6.5,0.43 -0.61,-0.33 -1.08,-0.79 -1.35,-1.31 -0.27,-0.54 -0.35,-1.14 -0.18,-1.77l0 -0.01c0.35,-1.26 1.72,-2.61 4.54,-3.63l44.92 -16.16c0.09,-0.03 0.19,0.01 0.22,0.1 0.03,0.09 -0.01,0.18 -0.09,0.21l-41.56 22.14zm-6.34 0.13c1.43,0.79 3.73,0.88 6.18,-0.43l39.51 -21.04 -42.73 15.37c-2.7,0.97 -4.01,2.24 -4.33,3.41l0 0c-0.14,0.54 -0.08,1.06 0.16,1.52 0.24,0.46 0.66,0.87 1.21,1.17z"/>
  <path class="fil6" d="M50.67 65.03c-5.66,3.49 -11.15,-2.53 -2.88,-5.98l38.71 -16.13 -35.83 22.11z"/>
  <path class="fil8" d="M50.76 65.17c-2.15,1.33 -4.28,1.31 -5.69,0.59 -0.59,-0.3 -1.06,-0.73 -1.34,-1.24 -0.29,-0.52 -0.4,-1.11 -0.28,-1.74 0.26,-1.3 1.52,-2.74 4.27,-3.89l38.72 -16.13c0.08,-0.03 0.18,0.01 0.22,0.09 0.03,0.08 0,0.18 -0.08,0.22l-35.82 22.1zm-5.53 0.29c1.31,0.68 3.32,0.68 5.36,-0.57l34.01 -21 -36.75 15.32c-2.62,1.09 -3.83,2.43 -4.07,3.63 -0.1,0.55 -0.01,1.07 0.24,1.51 0.26,0.45 0.68,0.84 1.21,1.11z"/>
  <path class="fil6" d="M55.73 65.06c-4.86,3.5 -8.97,-2.82 -2.48,-5.98l33.25 -16.16 -30.77 22.14z"/>
  <path class="fil8" d="M55.83 65.2c-1.69,1.21 -3.3,1.28 -4.44,0.71 -0.54,-0.27 -0.97,-0.68 -1.26,-1.18 -0.29,-0.5 -0.44,-1.09 -0.4,-1.71 0.09,-1.38 1.09,-2.95 3.44,-4.09l33.26 -16.16c0.08,-0.04 0.18,-0.01 0.22,0.08 0.04,0.07 0.01,0.17 -0.06,0.21l-30.76 22.14zm-4.29 0.41c1.04,0.52 2.52,0.44 4.09,-0.69l29.18 -20.99 -31.49 15.3c-2.22,1.08 -3.17,2.54 -3.25,3.81 -0.03,0.56 0.09,1.08 0.35,1.52 0.26,0.45 0.64,0.81 1.12,1.05z"/>
  <path class="fil6" d="M61.48 65.28c-3.12,2.79 -8.43,-2.1 -2.02,-5.98l27.04 -16.38 -25.02 22.36z"/>
  <path class="fil8" d="M61.59 65.4c-1.09,0.98 -2.44,1.06 -3.5,0.59l-0.02 -0.01c-0.5,-0.22 -0.94,-0.58 -1.26,-1.02l-0.01 -0.01c-0.32,-0.44 -0.52,-0.98 -0.53,-1.57 -0.03,-1.29 0.79,-2.83 3.1,-4.23l27.04 -16.38c0.08,-0.04 0.19,-0.02 0.23,0.06 0.05,0.07 0.03,0.17 -0.03,0.22l-25.02 22.35zm-3.37 0.28c0.96,0.42 2.17,0.35 3.15,-0.53l23.66 -21.14 -25.48 15.43c-2.19,1.32 -2.97,2.75 -2.94,3.93 0.01,0.52 0.18,0.99 0.46,1.39l0.01 0c0.29,0.4 0.68,0.71 1.13,0.91l0.01 0.01z"/>
  <path class="fil6" d="M68.86 64.56c-2.77,3.41 -11.36,0.95 -3.48,-5.19l21.12 -16.45 -17.64 21.64z"/>
  <path class="fil8" d="M68.99 64.67c-1.1,1.35 -3.06,1.81 -4.63,1.52 -0.65,-0.12 -1.24,-0.38 -1.67,-0.76 -0.44,-0.39 -0.71,-0.9 -0.73,-1.54 -0.02,-1.17 0.87,-2.75 3.32,-4.65l21.12 -16.45c0.07,-0.06 0.18,-0.05 0.23,0.03 0.05,0.06 0.05,0.15 0,0.21l-17.64 21.64zm-4.57 1.19c1.46,0.27 3.3,-0.16 4.31,-1.4l16.7 -20.49 -19.94 15.53c-2.35,1.83 -3.21,3.31 -3.19,4.39 0.01,0.53 0.24,0.96 0.61,1.29 0.38,0.34 0.92,0.57 1.51,0.68z"/>
  <path class="fil6" d="M74.77 64.32c-1.92,3.48 -10.47,1.89 -3.93,-4.97l15.66 -16.43 -11.73 21.4z"/>
  <path class="fil8" d="M74.91 64.4c-0.72,1.33 -2.36,1.95 -3.82,1.86 -0.66,-0.04 -1.29,-0.22 -1.78,-0.55 -0.51,-0.33 -0.88,-0.81 -1.01,-1.44 -0.24,-1.17 0.34,-2.86 2.42,-5.04l15.66 -16.43c0.06,-0.06 0.17,-0.07 0.24,0 0.05,0.05 0.06,0.13 0.03,0.2l-11.74 21.4zm-3.8 1.53c1.34,0.08 2.85,-0.49 3.51,-1.69l11.11 -20.27 -14.77 15.49c-1.99,2.09 -2.55,3.66 -2.33,4.74 0.12,0.53 0.43,0.95 0.86,1.23 0.45,0.3 1.02,0.46 1.62,0.5z"/>
  <path class="fil6" d="M80.83 63.48c-1.07,3.89 -10.37,4.17 -4.88,-4.3l10.55 -16.26 -5.67 20.56z"/>
  <path class="fil8" d="M80.99 63.54c-0.4,1.45 -1.9,2.43 -3.4,2.66 -0.7,0.12 -1.39,0.07 -1.98,-0.16 -0.61,-0.24 -1.09,-0.66 -1.35,-1.3 -0.47,-1.15 -0.18,-2.98 1.55,-5.65l10.55 -16.26c0.05,-0.08 0.15,-0.1 0.23,-0.05 0.06,0.04 0.09,0.11 0.07,0.18l-5.67 20.58zm-3.45 2.33c1.38,-0.22 2.76,-1.1 3.13,-2.43l5.38 -19.51 -9.96 15.34c-1.66,2.56 -1.95,4.29 -1.52,5.34 0.22,0.55 0.64,0.91 1.16,1.11 0.53,0.21 1.17,0.25 1.81,0.15z"/>
  <path class="fil6" d="M88.34 62.9c0.36,3.91 -10.87,5.16 -8.4,-1.71l6.56 -18.27 1.84 19.98z"/>
  <path class="fil8" d="M88.51 62.89c0.12,1.34 -1,2.38 -2.51,2.93 -0.93,0.35 -2.02,0.5 -3.03,0.42 -1.02,-0.08 -1.97,-0.4 -2.64,-1.02 -0.88,-0.82 -1.25,-2.15 -0.55,-4.08l6.56 -18.28c0.03,-0.09 0.13,-0.13 0.22,-0.1 0.06,0.02 0.1,0.08 0.11,0.14l1.84 19.99zm-2.62 2.62c1.36,-0.5 2.39,-1.43 2.28,-2.59l-1.77 -19.23 -6.3 17.56c-0.64,1.79 -0.33,2.99 0.46,3.73 0.6,0.55 1.49,0.85 2.44,0.92 0.96,0.08 2,-0.07 2.89,-0.39z"/>
  <path class="fil6" d="M141.85 65.24c8.73,3.52 8.54,-4.87 4.47,-5.98l-59.82 -16.34 55.35 22.32z"/>
  <path class="fil8" d="M141.92 65.08c2.91,1.18 4.8,1.01 5.86,0.23 0.45,-0.34 0.76,-0.79 0.92,-1.3 0.17,-0.51 0.19,-1.08 0.1,-1.64 -0.23,-1.31 -1.15,-2.57 -2.53,-2.95l-57.03 -15.58 52.68 21.24zm6.06 0.5c-1.15,0.84 -3.14,1.05 -6.19,-0.18l-55.35 -22.32c-0.08,-0.04 -0.13,-0.12 -0.1,-0.21 0.02,-0.08 0.12,-0.14 0.2,-0.11l59.82 16.34c1.52,0.41 2.52,1.79 2.77,3.21 0.11,0.61 0.08,1.24 -0.11,1.8 -0.18,0.57 -0.53,1.09 -1.04,1.47z"/>
  <path class="fil6" d="M135.61 65.24c7.74,3.52 7.57,-4.87 3.96,-5.98l-53.07 -16.34 49.11 22.32z"/>
  <path class="fil8" d="M135.68 65.09c2.45,1.11 4.07,1.01 5.02,0.33 0.44,-0.31 0.74,-0.75 0.91,-1.26 0.18,-0.5 0.22,-1.08 0.16,-1.64 -0.17,-1.37 -0.99,-2.71 -2.25,-3.1l-50.55 -15.56 46.71 21.23zm5.22 0.6c-1.04,0.75 -2.78,0.88 -5.36,-0.3l-49.11 -22.32c-0.08,-0.03 -0.12,-0.12 -0.09,-0.2 0.03,-0.09 0.12,-0.14 0.21,-0.11l53.07 16.34c1.4,0.43 2.3,1.89 2.48,3.38 0.08,0.61 0.02,1.24 -0.17,1.79 -0.19,0.57 -0.53,1.07 -1.03,1.42z"/>
  <path class="fil6" d="M128.07 65.06c6.57,3.5 12.11,-2.83 3.36,-5.98l-44.93 -16.16 41.57 22.14z"/>
  <path class="fil8" d="M128.15 64.91c2.45,1.31 4.75,1.22 6.18,0.43 0.55,-0.3 0.97,-0.71 1.21,-1.17 0.24,-0.46 0.3,-0.98 0.16,-1.52l0 0c-0.32,-1.17 -1.63,-2.44 -4.33,-3.41l-42.73 -15.37 39.51 21.04zm6.34 0.73c-1.51,0.83 -3.93,0.94 -6.5,-0.43l-41.56 -22.14c-0.08,-0.03 -0.12,-0.12 -0.09,-0.21 0.03,-0.09 0.13,-0.13 0.22,-0.1l44.92 16.16c2.82,1.02 4.19,2.37 4.54,3.63l0 0.01c0.17,0.63 0.09,1.23 -0.18,1.77 -0.27,0.52 -0.74,0.98 -1.35,1.31z"/>
  <path class="fil6" d="M122.33 65.03c5.66,3.49 11.15,-2.53 2.88,-5.98l-38.71 -16.13 35.83 22.11z"/>
  <path class="fil8" d="M122.41 64.89c2.04,1.25 4.05,1.25 5.36,0.57 0.53,-0.27 0.95,-0.66 1.21,-1.11 0.25,-0.44 0.34,-0.96 0.24,-1.51 -0.24,-1.2 -1.45,-2.54 -4.07,-3.63l-36.75 -15.32 34.01 21zm5.52 0.87c-1.41,0.72 -3.54,0.74 -5.69,-0.59l-35.82 -22.1c-0.08,-0.04 -0.11,-0.14 -0.08,-0.22 0.04,-0.08 0.14,-0.12 0.22,-0.09l38.72 16.13c2.75,1.15 4.01,2.59 4.27,3.89 0.12,0.63 0.01,1.22 -0.28,1.74 -0.28,0.51 -0.75,0.94 -1.34,1.24z"/>
  <path class="fil6" d="M117.27 65.06c4.86,3.5 8.97,-2.82 2.48,-5.98l-33.25 -16.16 30.77 22.14z"/>
  <path class="fil8" d="M117.37 64.92c1.57,1.13 3.05,1.21 4.09,0.69 0.48,-0.24 0.86,-0.6 1.12,-1.05 0.26,-0.44 0.38,-0.96 0.35,-1.52 -0.08,-1.27 -1.03,-2.73 -3.25,-3.81l-31.49 -15.3 29.18 20.99zm4.24 0.99c-1.14,0.57 -2.75,0.5 -4.44,-0.71l-30.76 -22.14c-0.07,-0.04 -0.1,-0.14 -0.06,-0.21 0.04,-0.09 0.14,-0.12 0.22,-0.08l33.26 16.16c2.35,1.14 3.35,2.71 3.44,4.09 0.04,0.62 -0.11,1.21 -0.4,1.71 -0.29,0.5 -0.72,0.91 -1.26,1.18z"/>
  <path class="fil6" d="M111.52 65.28c3.12,2.79 8.43,-2.1 2.02,-5.98l-27.04 -16.38 25.02 22.36z"/>
  <path class="fil8" d="M111.63 65.15c0.98,0.88 2.19,0.95 3.15,0.53l0.01 -0.01c0.45,-0.2 0.84,-0.51 1.13,-0.91l0.01 0c0.28,-0.4 0.45,-0.87 0.46,-1.39 0.03,-1.18 -0.75,-2.61 -2.94,-3.93l-25.48 -15.43 23.66 21.14zm3.28 0.84c-1.06,0.47 -2.41,0.39 -3.5,-0.59l-25.02 -22.35c-0.06,-0.05 -0.08,-0.15 -0.03,-0.22 0.04,-0.08 0.15,-0.1 0.23,-0.06l27.04 16.38c2.31,1.4 3.13,2.94 3.1,4.23 -0.01,0.59 -0.21,1.13 -0.53,1.57l-0.01 0.01c-0.32,0.44 -0.76,0.8 -1.26,1.02l-0.02 0.01z"/>
  <path class="fil6" d="M104.14 64.56c2.77,3.41 11.36,0.95 3.48,-5.19l-21.12 -16.45 17.64 21.64z"/>
  <path class="fil8" d="M104.27 64.46c1.01,1.24 2.85,1.67 4.31,1.4 0.59,-0.11 1.13,-0.34 1.51,-0.68 0.37,-0.33 0.6,-0.76 0.61,-1.29 0.02,-1.08 -0.84,-2.56 -3.19,-4.39l-19.94 -15.53 16.7 20.49zm4.37 1.73c-1.57,0.29 -3.53,-0.17 -4.63,-1.52l-17.64 -21.64c-0.05,-0.06 -0.05,-0.15 0,-0.21 0.05,-0.08 0.16,-0.09 0.23,-0.03l21.12 16.45c2.45,1.9 3.34,3.48 3.32,4.65 -0.02,0.64 -0.29,1.15 -0.73,1.54 -0.43,0.38 -1.02,0.64 -1.67,0.76z"/>
  <path class="fil6" d="M98.23 64.32c1.92,3.48 10.47,1.89 3.93,-4.97l-15.66 -16.43 11.73 21.4z"/>
  <path class="fil8" d="M98.38 64.24c0.66,1.2 2.17,1.77 3.51,1.69 0.6,-0.04 1.17,-0.2 1.62,-0.5 0.43,-0.28 0.74,-0.7 0.86,-1.23 0.22,-1.08 -0.34,-2.65 -2.33,-4.74l-14.77 -15.49 11.11 20.27zm3.53 2.02c-1.46,0.09 -3.1,-0.53 -3.82,-1.86l-11.74 -21.4c-0.03,-0.07 -0.02,-0.15 0.03,-0.2 0.07,-0.07 0.18,-0.06 0.24,0l15.66 16.43c2.08,2.18 2.66,3.87 2.42,5.04 -0.13,0.63 -0.5,1.11 -1.01,1.44 -0.49,0.33 -1.12,0.51 -1.78,0.55z"/>
  <path class="fil6" d="M92.17 63.48c1.07,3.89 10.37,4.17 4.88,-4.3l-10.55 -16.26 5.67 20.56z"/>
  <path class="fil8" d="M92.33 63.44c0.37,1.33 1.75,2.21 3.13,2.43 0.64,0.1 1.28,0.06 1.81,-0.15 0.52,-0.2 0.94,-0.56 1.16,-1.11 0.43,-1.05 0.14,-2.78 -1.52,-5.34l-9.96 -15.34 5.38 19.51zm3.08 2.76c-1.5,-0.23 -3,-1.21 -3.4,-2.66l-5.67 -20.58c-0.02,-0.07 0.01,-0.14 0.07,-0.18 0.08,-0.05 0.18,-0.03 0.23,0.05l10.55 16.26c1.73,2.67 2.02,4.5 1.55,5.65 -0.26,0.64 -0.74,1.06 -1.35,1.3 -0.59,0.23 -1.28,0.28 -1.98,0.16z"/>
  <path class="fil6" d="M84.66 62.9c-0.36,3.91 10.87,5.16 8.4,-1.71l-6.56 -18.27 -1.84 19.98z"/>
  <path class="fil8" d="M84.83 62.92c-0.11,1.16 0.92,2.09 2.28,2.59 0.89,0.32 1.93,0.47 2.89,0.39 0.95,-0.07 1.84,-0.37 2.44,-0.92 0.79,-0.74 1.1,-1.94 0.46,-3.73l-6.3 -17.56 -1.77 19.23zm2.17 2.9c-1.51,-0.55 -2.63,-1.59 -2.51,-2.93l1.84 -19.99c0.01,-0.06 0.05,-0.12 0.11,-0.14 0.09,-0.03 0.19,0.01 0.22,0.1l6.56 18.28c0.7,1.93 0.33,3.26 -0.55,4.08 -0.67,0.62 -1.62,0.94 -2.64,1.02 -1.01,0.08 -2.1,-0.07 -3.03,-0.42z"/>
  <path class="fil6" d="M84.66 62.9c-0.1,1.09 0.69,1.97 1.84,2.53 1.15,-0.56 1.94,-1.44 1.84,-2.53l-1.84 -19.98 -1.84 19.98z"/>
  <path class="fil8" d="M84.83 62.92c-0.05,0.47 0.1,0.91 0.37,1.29 0.3,0.4 0.76,0.75 1.3,1.03 0.54,-0.28 1,-0.63 1.3,-1.03 0.27,-0.38 0.42,-0.82 0.37,-1.29l-1.67 -18.16 -1.67 18.16zm0.1 1.48c-0.32,-0.44 -0.49,-0.95 -0.44,-1.51l1.84 -19.99c0.01,-0.08 0.07,-0.14 0.15,-0.15 0.1,-0.01 0.18,0.06 0.19,0.15l1.84 19.99c0.05,0.56 -0.12,1.07 -0.44,1.51 -0.35,0.48 -0.87,0.88 -1.5,1.18 -0.04,0.02 -0.1,0.02 -0.14,0 -0.63,-0.3 -1.15,-0.7 -1.5,-1.18z"/>
  <path class="fil6" d="M86.5 39.62l1.82 2.2 1.82 2.2c0,1.05 -1.63,1.9 -3.64,1.9 -2.01,0 -3.64,-0.85 -3.64,-1.9l1.82 -2.2 1.82 -2.2z"/>
  <path class="fil8" d="M86.63 39.52l3.68 4.44 0 0.06c0,0.59 -0.45,1.12 -1.16,1.49 -0.68,0.36 -1.62,0.58 -2.65,0.58 -1.03,0 -1.97,-0.22 -2.65,-0.58 -0.71,-0.37 -1.16,-0.9 -1.16,-1.49l0 -0.06 3.81 -4.6 0.13 0.16zm1.56 2.41l-1.69 -2.04 -3.46 4.19c0.03,0.43 0.39,0.83 0.97,1.13 0.63,0.33 1.51,0.54 2.49,0.54 0.98,0 1.86,-0.21 2.49,-0.54 0.58,-0.3 0.94,-0.7 0.97,-1.13l-1.77 -2.15z"/>
  <path class="fil6" d="M86.5 69.32c-4.88,2.85 -7.16,6.14 -6.85,9.86 -2.53,-1.2 -3.4,-2.93 -2.61,-5.2 -3.57,1.35 -3.98,4.37 -1.23,9.04 -5.61,3.39 -7.25,-5.8 -15.22,-4.11 2.57,7.46 -0.77,8.71 -4.79,10.05 -3.42,1.14 -8.21,-1.27 -6.17,-5.53 -3.34,-0.27 -4.09,4.89 -8.18,7.39 -4.58,2.8 -8.52,1.79 -8.41,-3.27 -5.79,2.34 -6.34,10.07 1.51,13.78 10.16,4.79 31.39,2.4 42.36,-1.25l9.59 0 9.59 0c10.97,3.65 32.2,6.04 42.36,1.25 7.85,-3.71 7.3,-11.44 1.51,-13.78 0.11,5.06 -3.83,6.07 -8.41,3.27 -4.09,-2.5 -4.84,-7.66 -8.18,-7.39 2.04,4.26 -2.75,6.67 -6.17,5.53 -4.02,-1.34 -7.36,-2.59 -4.79,-10.05 -7.97,-1.69 -9.61,7.5 -15.22,4.11 2.75,-4.67 2.34,-7.69 -1.23,-9.04 0.79,2.27 -0.08,4 -2.61,5.2 0.31,-3.72 -1.97,-7.01 -6.85,-9.86z"/>
  <path class="fil8" d="M86.5 69.61c-2.34,1.39 -4.06,2.87 -5.17,4.46 -1.1,1.6 -1.58,3.29 -1.43,5.09l0.04 0.44 -0.4 -0.19c-1.32,-0.62 -2.2,-1.39 -2.66,-2.31 -0.4,-0.8 -0.48,-1.69 -0.23,-2.68 -0.18,0.08 -0.35,0.17 -0.51,0.26 -0.96,0.57 -1.55,1.31 -1.77,2.25 -0.23,0.95 -0.08,2.11 0.43,3.48 0.29,0.77 0.7,1.59 1.23,2.49l0.12 0.21 -0.21 0.13c-2.94,1.77 -4.81,0.3 -6.98,-1.41 -2.02,-1.6 -4.31,-3.4 -8.03,-2.73 1.21,3.66 0.98,5.84 -0.06,7.28 -1.06,1.47 -2.94,2.13 -5,2.82 -1.47,0.49 -3.2,0.35 -4.56,-0.3 -0.52,-0.26 -0.99,-0.58 -1.38,-0.98 -0.39,-0.4 -0.69,-0.87 -0.86,-1.4 -0.28,-0.82 -0.26,-1.77 0.17,-2.84 -1.48,0.09 -2.43,1.44 -3.56,3.05 -1.04,1.48 -2.22,3.16 -4.09,4.31 -1.76,1.07 -3.43,1.6 -4.83,1.57 -0.7,-0.02 -1.33,-0.17 -1.88,-0.46 -0.55,-0.29 -1.01,-0.73 -1.36,-1.3 -0.45,-0.73 -0.71,-1.71 -0.73,-2.92 -1.55,0.72 -2.67,1.84 -3.29,3.16 -0.36,0.76 -0.55,1.58 -0.57,2.42 -0.02,0.84 0.14,1.71 0.48,2.57 0.77,1.89 2.47,3.71 5.25,5.02 4.52,2.13 11.28,2.83 18.33,2.62 8.68,-0.25 17.81,-1.88 23.84,-3.88l0.04 -0.01 19.26 0 0.04 0.01c6.03,2 15.16,3.63 23.84,3.88 7.05,0.21 13.81,-0.49 18.33,-2.62 2.78,-1.31 4.48,-3.13 5.25,-5.02 0.34,-0.86 0.5,-1.73 0.48,-2.57 -0.02,-0.84 -0.21,-1.66 -0.57,-2.42 -0.62,-1.32 -1.74,-2.44 -3.29,-3.16 -0.02,1.21 -0.28,2.18 -0.73,2.92 -0.35,0.57 -0.81,1.01 -1.36,1.3 -0.55,0.29 -1.18,0.44 -1.88,0.46 -1.4,0.03 -3.07,-0.5 -4.83,-1.57 -1.87,-1.15 -3.05,-2.83 -4.09,-4.31 -1.13,-1.61 -2.08,-2.96 -3.56,-3.05 0.43,1.07 0.45,2.02 0.17,2.84 -0.17,0.53 -0.47,1 -0.86,1.4 -0.39,0.4 -0.86,0.72 -1.38,0.98 -1.36,0.65 -3.09,0.79 -4.56,0.3 -2.06,-0.69 -3.94,-1.35 -5,-2.82 -1.04,-1.44 -1.27,-3.62 -0.06,-7.28 -3.72,-0.67 -6.01,1.13 -8.03,2.73 -2.17,1.71 -4.04,3.18 -6.98,1.41l-0.21 -0.13 0.12 -0.21c0.53,-0.9 0.94,-1.72 1.23,-2.49 0.51,-1.37 0.66,-2.53 0.43,-3.48 -0.22,-0.94 -0.81,-1.68 -1.77,-2.25 -0.16,-0.09 -0.33,-0.18 -0.51,-0.26 0.25,0.99 0.17,1.88 -0.23,2.68 -0.46,0.92 -1.34,1.69 -2.66,2.31l-0.4 0.19 0.04 -0.44c0.15,-1.8 -0.33,-3.49 -1.43,-5.09 -1.11,-1.59 -2.83,-3.07 -5.17,-4.46zm-5.58 4.17c1.16,-1.67 2.98,-3.24 5.45,-4.68l0.13 -0.08 0.13 0.08c2.47,1.44 4.29,3.01 5.45,4.68 1.09,1.56 1.6,3.22 1.55,4.98 1,-0.53 1.68,-1.17 2.04,-1.89 0.4,-0.81 0.42,-1.74 0.05,-2.81l-0.18 -0.51 0.51 0.19c0.39,0.15 0.75,0.32 1.07,0.51 1.08,0.63 1.75,1.49 2,2.56 0.25,1.06 0.1,2.32 -0.45,3.78 -0.28,0.73 -0.65,1.51 -1.13,2.34 2.52,1.39 4.22,0.05 6.18,-1.5 2.16,-1.7 4.62,-3.64 8.74,-2.77l0.28 0.06 -0.09 0.27c-1.26,3.64 -1.08,5.75 -0.11,7.09 0.97,1.35 2.77,1.98 4.74,2.64 1.36,0.45 2.94,0.32 4.19,-0.28 0.47,-0.23 0.89,-0.52 1.23,-0.87 0.34,-0.35 0.6,-0.75 0.75,-1.21 0.27,-0.79 0.21,-1.74 -0.3,-2.82l-0.16 -0.33 0.36 -0.03c1.98,-0.16 3.08,1.4 4.38,3.26 1.01,1.44 2.16,3.07 3.95,4.17 1.67,1.02 3.24,1.52 4.55,1.49 0.62,-0.01 1.17,-0.15 1.65,-0.4 0.47,-0.25 0.86,-0.62 1.16,-1.11 0.45,-0.74 0.7,-1.75 0.67,-3.04l-0.01 -0.38 0.35 0.14c1.85,0.75 3.19,2.04 3.91,3.57 0.39,0.81 0.6,1.7 0.62,2.62 0.02,0.91 -0.15,1.85 -0.52,2.77 -0.81,2 -2.6,3.92 -5.5,5.29 -4.6,2.17 -11.44,2.88 -18.57,2.67 -8.71,-0.26 -17.87,-1.88 -23.93,-3.89l-19.12 0c-6.06,2.01 -15.22,3.63 -23.93,3.89 -7.13,0.21 -13.97,-0.5 -18.57,-2.67 -2.9,-1.37 -4.69,-3.29 -5.5,-5.29 -0.37,-0.92 -0.54,-1.86 -0.52,-2.77 0.02,-0.92 0.23,-1.81 0.62,-2.62 0.72,-1.53 2.06,-2.82 3.91,-3.57l0.35 -0.14 -0.01 0.38c-0.03,1.29 0.22,2.3 0.67,3.04 0.3,0.49 0.69,0.86 1.16,1.11 0.48,0.25 1.03,0.39 1.65,0.4 1.31,0.03 2.88,-0.47 4.55,-1.49 1.79,-1.1 2.94,-2.73 3.95,-4.17 1.3,-1.86 2.4,-3.42 4.38,-3.26l0.37 0.03 -0.17 0.33c-0.51,1.08 -0.57,2.03 -0.3,2.82 0.15,0.46 0.41,0.86 0.75,1.21 0.34,0.35 0.76,0.64 1.23,0.87 1.25,0.6 2.83,0.73 4.19,0.28 1.97,-0.66 3.77,-1.29 4.74,-2.64 0.97,-1.34 1.15,-3.45 -0.11,-7.09l-0.09 -0.27 0.28 -0.06c4.12,-0.87 6.58,1.07 8.74,2.77 1.96,1.55 3.66,2.89 6.18,1.5 -0.48,-0.83 -0.85,-1.61 -1.13,-2.34 -0.55,-1.46 -0.7,-2.72 -0.45,-3.78 0.25,-1.07 0.92,-1.93 2,-2.56 0.32,-0.19 0.68,-0.36 1.07,-0.51l0.51 -0.19 -0.18 0.51c-0.37,1.07 -0.35,2 0.05,2.81 0.36,0.72 1.04,1.36 2.04,1.89 -0.05,-1.76 0.46,-3.42 1.55,-4.98z"/>
  <path class="fil6" d="M75.95 79.32c2.08,4.38 5.59,7.99 10.55,10.83 4.96,-2.84 8.47,-6.45 10.55,-10.83 -1.65,1.16 -3.25,1.75 -4.79,1.78 -0.11,-4.13 -2.03,-7.15 -5.76,-9.04 -3.73,1.89 -5.65,4.91 -5.76,9.04 -1.54,-0.03 -3.14,-0.62 -4.79,-1.78z"/>
  <path class="fil8" d="M76.59 80.04c0.98,1.84 2.22,3.54 3.74,5.1 1.71,1.75 3.77,3.33 6.17,4.72 2.4,-1.39 4.46,-2.97 6.17,-4.72 1.52,-1.56 2.76,-3.26 3.74,-5.1 -0.57,0.34 -1.14,0.62 -1.71,0.83 -0.82,0.31 -1.64,0.47 -2.44,0.49l-0.25 0 -0.01 -0.25c-0.05,-2.02 -0.54,-3.76 -1.47,-5.23 -0.92,-1.44 -2.26,-2.62 -4.03,-3.54 -1.77,0.92 -3.11,2.1 -4.03,3.54 -0.93,1.47 -1.42,3.21 -1.47,5.23l-0.01 0.25 -0.25 0c-0.81,-0.02 -1.62,-0.18 -2.44,-0.49 -0.57,-0.21 -1.14,-0.49 -1.71,-0.83zm3.37 5.45c-1.77,-1.83 -3.19,-3.85 -4.24,-6.06l-0.41 -0.86 0.78 0.54c0.81,0.57 1.6,1 2.38,1.29 0.69,0.25 1.37,0.4 2.03,0.44 0.09,-2 0.6,-3.75 1.55,-5.23 0.98,-1.55 2.43,-2.81 4.34,-3.78l0.11 -0.06 0.11 0.06c1.91,0.97 3.36,2.23 4.34,3.78 0.95,1.48 1.46,3.23 1.55,5.23 0.67,-0.04 1.34,-0.19 2.03,-0.44 0.78,-0.29 1.57,-0.72 2.38,-1.29l0.78 -0.54 -0.41 0.86c-1.05,2.21 -2.47,4.23 -4.24,6.06 -1.78,1.82 -3.92,3.45 -6.41,4.88l-0.13 0.07 -0.13 -0.07c-2.49,-1.43 -4.63,-3.06 -6.41,-4.88z"/>
  <path class="fil6" d="M76.91 84.26c2.17,2.94 5,5.73 8.49,8.36 -3.27,0.22 -5.82,1.13 -7.67,2.74 -0.52,-3.98 -2.21,-6.86 -5.07,-8.64 1.16,-1.2 2.58,-2.02 4.25,-2.46z"/>
  <path class="fil8" d="M77.11 84.11c1.08,1.46 2.32,2.88 3.73,4.27 1.4,1.38 2.98,2.73 4.71,4.04l0.55 0.41 -0.68 0.04c-1.61,0.11 -3.04,0.39 -4.3,0.84 -1.25,0.44 -2.33,1.06 -3.23,1.84l-0.35 0.31 -0.06 -0.47c-0.26,-1.95 -0.8,-3.63 -1.63,-5.04 -0.82,-1.41 -1.93,-2.54 -3.33,-3.41l-0.26 -0.17 0.21 -0.22c0.6,-0.62 1.27,-1.14 1.99,-1.56 0.73,-0.42 1.53,-0.75 2.38,-0.98l0.17 -0.04 0.1 0.14zm3.37 4.63c-1.38,-1.36 -2.61,-2.76 -3.67,-4.19 -0.75,0.21 -1.45,0.5 -2.09,0.88 -0.6,0.34 -1.15,0.76 -1.66,1.25 1.34,0.89 2.41,2.03 3.23,3.41 0.79,1.36 1.34,2.96 1.62,4.79 0.88,-0.69 1.89,-1.24 3.04,-1.65 1.12,-0.4 2.38,-0.67 3.78,-0.81 -1.55,-1.2 -2.97,-2.42 -4.25,-3.68z"/>
  <path class="fil6" d="M31.81 91.66c-1.72,4.7 3.22,10.81 18.78,10.74 8.07,-0.04 16.33,-2.16 23.84,-2.52 1.76,-9.44 -2.77,-15.29 -11.1,-18.5 0.84,11.09 -16.43,13.6 -15.62,5.07 -3.54,1.91 -2.5,6.27 -8.53,7.6 -2.81,0.62 -5.17,0.16 -7.37,-2.39z"/>
  <path class="fil8" d="M31.91 92.16c-0.12,0.43 -0.18,0.88 -0.17,1.33 0,1.26 0.5,2.56 1.58,3.76 1.08,1.21 2.76,2.32 5.1,3.17 2.95,1.08 6.96,1.75 12.17,1.73 4.46,-0.02 8.99,-0.68 13.41,-1.33 3.49,-0.51 6.92,-1.01 10.22,-1.18 0.78,-4.39 0.17,-7.98 -1.56,-10.87 -1.84,-3.08 -4.97,-5.37 -9.05,-7.01 0.17,4.42 -2.5,7.46 -5.71,8.96 -1.32,0.62 -2.74,0.97 -4.09,1.06 -1.35,0.08 -2.65,-0.11 -3.71,-0.59 -1.63,-0.75 -2.71,-2.16 -2.67,-4.28 -1.11,0.74 -1.71,1.77 -2.32,2.83 -1.06,1.83 -2.18,3.74 -5.87,4.55 -1.45,0.32 -2.79,0.37 -4.05,0 -1.15,-0.34 -2.23,-1.02 -3.28,-2.13zm-0.68 1.33c0,-0.65 0.11,-1.3 0.34,-1.92l0.15 -0.4 0.28 0.32c1.06,1.24 2.17,1.97 3.33,2.31 1.18,0.34 2.43,0.3 3.8,0 3.48,-0.77 4.53,-2.58 5.54,-4.32 0.72,-1.24 1.42,-2.45 2.92,-3.25l0.41 -0.23 -0.04 0.47c-0.2,2.14 0.79,3.54 2.35,4.26 0.99,0.44 2.2,0.62 3.47,0.54 1.29,-0.08 2.64,-0.42 3.91,-1.01 3.13,-1.47 5.72,-4.47 5.39,-8.86l-0.03 -0.4 0.38 0.14c4.36,1.69 7.7,4.1 9.66,7.37 1.83,3.04 2.45,6.81 1.59,11.42l-0.04 0.2 -0.2 0.01c-3.33,0.16 -6.81,0.66 -10.37,1.18 -4.44,0.65 -8.98,1.31 -13.48,1.33 -5.27,0.03 -9.34,-0.65 -12.35,-1.75 -2.42,-0.88 -4.16,-2.04 -5.3,-3.31 -1.16,-1.3 -1.7,-2.71 -1.71,-4.1z"/>
  <path class="fil6" d="M58.4 96.73l0 -2.19c2.6,-1.18 4.65,-2.55 6.17,-4.11 1.36,2.27 3.05,4.14 5.07,5.62 -4.57,0.27 -8.32,0.49 -11.24,0.68z"/>
  <path class="fil8" d="M58.15 96.73l0 -2.36 0.15 -0.06c1.28,-0.59 2.44,-1.22 3.45,-1.9 1.01,-0.67 1.89,-1.39 2.64,-2.16l0.23 -0.24 0.17 0.29c0.67,1.12 1.42,2.14 2.26,3.07 0.83,0.92 1.75,1.75 2.74,2.47l0.57 0.42 -6.94 0.41 -5.27 0.33 0 -0.27zm0.5 -2.03l0 1.76 4.74 -0.29 5.55 -0.34c-0.81,-0.64 -1.57,-1.35 -2.27,-2.13 -0.78,-0.87 -1.5,-1.82 -2.15,-2.87 -0.72,0.71 -1.55,1.38 -2.49,2 -1,0.67 -2.13,1.29 -3.38,1.87z"/>
  <path class="fil6" d="M39.08 98.99c6.54,-0.44 9.22,2.71 12.88,1.3 -3.09,-1.47 -5.05,-3.75 -5.9,-6.85 -2.36,0.66 -1.59,1.92 -5.3,2.11 -1.33,0.07 -2.35,2.35 -1.68,3.44z"/>
  <path class="fil8" d="M39.23 98.72c3.17,-0.18 5.44,0.47 7.35,1.02 1.73,0.49 3.17,0.9 4.71,0.5 -1.32,-0.7 -2.43,-1.57 -3.31,-2.6 -0.95,-1.11 -1.65,-2.4 -2.09,-3.88 -0.73,0.24 -1.12,0.55 -1.49,0.85 -0.68,0.55 -1.32,1.08 -3.63,1.2 -0.18,0 -0.36,0.07 -0.53,0.17 -0.34,0.21 -0.63,0.57 -0.83,0.98 -0.2,0.41 -0.31,0.87 -0.29,1.28 0.01,0.18 0.04,0.34 0.11,0.48zm7.21 1.5c-1.91,-0.54 -4.17,-1.19 -7.35,-0.98l-0.15 0.01 -0.08 -0.13c-0.15,-0.25 -0.23,-0.54 -0.24,-0.86 -0.03,-0.49 0.1,-1.04 0.34,-1.52 0.24,-0.5 0.59,-0.93 1.01,-1.19 0.24,-0.14 0.5,-0.24 0.78,-0.25 2.14,-0.11 2.72,-0.58 3.33,-1.08 0.45,-0.37 0.92,-0.75 1.92,-1.02l0.24 -0.07 0.07 0.24c0.41,1.51 1.09,2.83 2.05,3.94 0.96,1.12 2.2,2.04 3.71,2.76l0.53 0.25 -0.55 0.21c-1.94,0.74 -3.58,0.27 -5.61,-0.31z"/>
  <path class="fil6" d="M86.5 98.56l-8.77 0c2.06,-1.98 4.99,-3.15 8.77,-3.49 3.78,0.34 6.71,1.51 8.77,3.49l-8.77 0z"/>
  <path class="fil8" d="M86.5 98.82l-9.4 0 0.45 -0.44c1.06,-1.01 2.33,-1.82 3.83,-2.42 1.48,-0.59 3.18,-0.97 5.1,-1.14l0.04 0c1.92,0.17 3.62,0.55 5.1,1.14 1.5,0.6 2.77,1.41 3.83,2.42l0.45 0.44 -9.4 0zm-8.11 -0.51l16.22 0c-0.91,-0.77 -1.97,-1.39 -3.17,-1.88 -1.44,-0.57 -3.08,-0.94 -4.94,-1.11 -1.86,0.17 -3.5,0.54 -4.94,1.11 -1.2,0.49 -2.26,1.11 -3.17,1.88z"/>
  <path class="fil6" d="M96.09 84.26c-2.17,2.94 -5,5.73 -8.49,8.36 3.27,0.22 5.82,1.13 7.67,2.74 0.52,-3.98 2.21,-6.86 5.07,-8.64 -1.16,-1.2 -2.58,-2.02 -4.25,-2.46z"/>
  <path class="fil8" d="M96.19 84.55c-1.06,1.43 -2.29,2.83 -3.67,4.19 -1.28,1.26 -2.7,2.48 -4.25,3.68 1.4,0.14 2.66,0.41 3.78,0.81 1.15,0.41 2.16,0.96 3.04,1.65 0.28,-1.83 0.83,-3.43 1.62,-4.79 0.82,-1.38 1.89,-2.52 3.23,-3.41 -0.51,-0.49 -1.06,-0.91 -1.66,-1.25 -0.64,-0.38 -1.34,-0.67 -2.09,-0.88zm-4.03 3.83c1.41,-1.39 2.65,-2.81 3.73,-4.27l0.1 -0.14 0.17 0.04c0.85,0.23 1.65,0.56 2.38,0.98 0.72,0.42 1.39,0.94 1.99,1.56l0.21 0.22 -0.26 0.17c-1.4,0.87 -2.51,2 -3.33,3.41 -0.83,1.41 -1.37,3.09 -1.63,5.04l-0.06 0.47 -0.35 -0.31c-0.9,-0.78 -1.98,-1.4 -3.23,-1.84 -1.26,-0.45 -2.69,-0.73 -4.3,-0.84l-0.68 -0.04 0.55 -0.41c1.73,-1.31 3.31,-2.66 4.71,-4.04z"/>
  <path class="fil6" d="M141.19 91.66c1.72,4.7 -3.22,10.81 -18.78,10.74 -8.07,-0.04 -16.33,-2.16 -23.84,-2.52 -1.76,-9.44 2.77,-15.29 11.1,-18.5 -0.84,11.09 16.43,13.6 15.62,5.07 3.54,1.91 2.5,6.27 8.53,7.6 2.81,0.62 5.17,0.16 7.37,-2.39z"/>
  <path class="fil8" d="M141.43 91.57c0.23,0.62 0.34,1.27 0.34,1.92 -0.01,1.39 -0.55,2.8 -1.71,4.1 -1.14,1.27 -2.88,2.43 -5.3,3.31 -3.01,1.1 -7.08,1.78 -12.35,1.75 -4.5,-0.02 -9.04,-0.68 -13.48,-1.33 -3.56,-0.52 -7.04,-1.02 -10.37,-1.18l-0.2 -0.01 -0.04 -0.2c-0.86,-4.61 -0.24,-8.38 1.59,-11.42 1.96,-3.27 5.3,-5.68 9.66,-7.37l0.38 -0.14 -0.03 0.4c-0.33,4.39 2.26,7.39 5.39,8.86 1.27,0.59 2.62,0.93 3.91,1.01 1.27,0.08 2.48,-0.1 3.47,-0.54 1.56,-0.72 2.55,-2.12 2.35,-4.26l-0.04 -0.47 0.41 0.23c1.5,0.8 2.2,2.01 2.92,3.25 1.01,1.74 2.06,3.55 5.54,4.32 1.37,0.3 2.62,0.34 3.8,0 1.16,-0.34 2.27,-1.07 3.33,-2.31l0.28 -0.32 0.15 0.4zm-0.17 1.92c0.01,-0.45 -0.05,-0.9 -0.17,-1.33 -1.05,1.11 -2.13,1.79 -3.28,2.13 -1.26,0.37 -2.6,0.32 -4.05,0 -3.69,-0.81 -4.81,-2.72 -5.87,-4.55 -0.61,-1.06 -1.21,-2.09 -2.32,-2.83 0.04,2.12 -1.04,3.53 -2.67,4.28 -1.06,0.48 -2.36,0.67 -3.71,0.59 -1.35,-0.09 -2.77,-0.44 -4.09,-1.06 -3.21,-1.5 -5.88,-4.54 -5.71,-8.96 -4.08,1.64 -7.21,3.93 -9.05,7.01 -1.73,2.89 -2.34,6.48 -1.56,10.87 3.3,0.17 6.73,0.67 10.22,1.18 4.42,0.65 8.95,1.31 13.41,1.33 5.21,0.02 9.22,-0.65 12.17,-1.73 2.34,-0.85 4.02,-1.96 5.1,-3.17 1.08,-1.2 1.58,-2.5 1.58,-3.76z"/>
  <path class="fil6" d="M114.6 96.73l0 -2.19c-2.6,-1.18 -4.65,-2.55 -6.17,-4.11 -1.36,2.27 -3.05,4.14 -5.07,5.62 4.57,0.27 8.32,0.49 11.24,0.68z"/>
  <path class="fil8" d="M114.35 96.46l0 -1.76c-1.25,-0.58 -2.38,-1.2 -3.38,-1.87 -0.94,-0.62 -1.77,-1.29 -2.49,-2 -0.65,1.05 -1.37,2 -2.15,2.87 -0.7,0.78 -1.46,1.49 -2.27,2.13l5.55 0.34 4.74 0.29zm0.5 -1.92l0 2.46 -5.27 -0.33 -6.94 -0.41 0.57 -0.42c0.99,-0.73 1.91,-1.55 2.74,-2.47 0.84,-0.93 1.59,-1.95 2.26,-3.07l0.17 -0.29 0.23 0.24c0.75,0.77 1.63,1.49 2.64,2.16 1.01,0.68 2.17,1.31 3.45,1.9l0.15 0.06 0 0.17z"/>
  <path class="fil6" d="M133.92 98.99c-6.54,-0.44 -9.22,2.71 -12.88,1.3 3.09,-1.47 5.05,-3.75 5.9,-6.85 2.36,0.66 1.59,1.92 5.3,2.11 1.33,0.07 2.35,2.35 1.68,3.44z"/>
  <path class="fil8" d="M133.91 99.24c-3.18,-0.21 -5.44,0.44 -7.35,0.98 -2.03,0.58 -3.67,1.05 -5.61,0.31l-0.55 -0.21 0.53 -0.25c1.51,-0.72 2.75,-1.64 3.71,-2.76 0.96,-1.11 1.64,-2.43 2.05,-3.94l0.07 -0.24 0.24 0.07c1,0.27 1.47,0.65 1.92,1.02 0.61,0.5 1.19,0.97 3.33,1.08 0.28,0.01 0.54,0.11 0.78,0.25 0.42,0.26 0.77,0.69 1.01,1.19 0.24,0.48 0.37,1.03 0.34,1.52 -0.01,0.32 -0.09,0.61 -0.24,0.86l-0.08 0.13 -0.15 -0.01zm-7.49 0.5c1.91,-0.55 4.18,-1.2 7.35,-1.02 0.07,-0.14 0.1,-0.3 0.11,-0.48 0.02,-0.41 -0.09,-0.87 -0.29,-1.28 -0.2,-0.41 -0.49,-0.77 -0.83,-0.98 -0.17,-0.1 -0.35,-0.17 -0.53,-0.17 -2.31,-0.12 -2.95,-0.65 -3.63,-1.2 -0.37,-0.3 -0.76,-0.61 -1.49,-0.85 -0.44,1.48 -1.14,2.77 -2.09,3.88 -0.88,1.03 -1.99,1.9 -3.31,2.6 1.54,0.4 2.98,-0.01 4.71,-0.5z"/>
  <path class="fil5" d="M57.68 106.34c13.07,12.49 11.58,17.87 15.34,20.22 2.12,1.33 8.89,-2.76 11.5,-0.67 14.99,12.02 22.76,21.02 23.3,27.01 2.09,-1.76 4.21,-3 6.34,-3.72 -2.78,-6.62 -21.6,-20.9 -56.48,-42.84z"/>
  <path class="fil8" d="M60.13 108.28c6.4,6.55 8.61,10.94 10.09,13.9 0.98,1.95 1.63,3.25 2.98,4.1 0.83,0.52 2.67,0.03 4.63,-0.49 2.56,-0.68 5.34,-1.42 6.9,-0.16 7.51,6.02 13.22,11.29 17.12,15.8 3.67,4.26 5.74,7.86 6.23,10.82 0.9,-0.72 1.81,-1.36 2.72,-1.89 0.96,-0.57 1.93,-1.02 2.9,-1.38 -1.57,-3.27 -6.89,-8.34 -15.95,-15.21 -8.92,-6.77 -21.46,-15.27 -37.62,-25.49zm9.49 14.2c-1.62,-3.23 -4.12,-8.2 -12.17,-15.9l-2.42 -2.31 2.83 1.78c17.44,10.97 30.88,20.03 40.3,27.18 9.46,7.18 14.9,12.45 16.31,15.82l0.14 0.33 -0.34 0.12c-1.05,0.35 -2.09,0.83 -3.13,1.44 -1.03,0.61 -2.07,1.35 -3.1,2.22l-0.49 0.42 -0.06 -0.65c-0.27,-2.92 -2.32,-6.61 -6.16,-11.06 -3.86,-4.48 -9.54,-9.72 -17.02,-15.71 -1.3,-1.04 -3.9,-0.36 -6.3,0.28 -2.12,0.56 -4.09,1.08 -5.17,0.41 -1.51,-0.95 -2.2,-2.32 -3.22,-4.37z"/>
  <path class="fil5" d="M99.28 119.56l-23.28 16.67 -16.8 13.78 1.65 1.65 17.77 -13.91 21.35 -16.95c7.8,-3.6 14,-8.24 18.6,-13.91 -10.06,0.75 -16.49,4.98 -19.29,12.67z"/>
  <path class="fil8" d="M99.48 119.84l-23.28 16.67 -16.5 13.52 1.18 1.18 17.53 -13.73 21.38 -16.97 0.04 -0.01c3.88,-1.8 7.36,-3.85 10.44,-6.15 2.85,-2.13 5.36,-4.48 7.53,-7.06 -9.46,0.91 -15.53,5.04 -18.2,12.39l-0.04 0.1 -0.08 0.06zm-23.67 16.12l23.19 -16.61c2.87,-7.77 9.38,-12.03 19.54,-12.8l0.78 -0.06 -0.49 0.61c-2.32,2.86 -5.04,5.45 -8.16,7.79 -3.11,2.33 -6.62,4.39 -10.52,6.2l-21.32 16.92 -18.01 14.1 -2.13 -2.13c5.69,-4.66 11.5,-9.29 17.12,-14.02z"/>
  <path class="fil7" d="M99.97 120.8c6.92,-3.2 12.59,-7.21 16.99,-12.04 -9.72,3.41 -15.38,7.43 -16.99,12.04z"/>
  <ellipse class="fil6" cx="86.5" cy="127.3" rx="18.46" ry="16.28"/>
  <path class="fil7" d="M86.5 108.48c5.73,0 10.94,2.07 14.73,5.42 3.87,3.41 6.27,8.15 6.27,13.4 0,5.25 -2.4,9.99 -6.27,13.41 -3.79,3.34 -9,5.41 -14.73,5.41 -5.74,0 -10.94,-2.07 -14.73,-5.4l-0.15 -0.15c-3.78,-3.4 -6.12,-8.09 -6.12,-13.27 0,-5.25 2.4,-9.99 6.27,-13.4l0.01 -0.01 -0.01 0c3.79,-3.34 8.99,-5.41 14.73,-5.41zm0 2.54c10.19,0 18.46,7.29 18.46,16.28 0,8.99 -8.27,16.28 -18.46,16.28 -10.2,0 -18.46,-7.29 -18.46,-16.28 0,-8.99 8.26,-16.28 18.46,-16.28z"/>
  <ellipse class="fil6" cx="86.5" cy="127.3" rx="4.2" ry="3.7"/>
  <path class="fil7" d="M86.5 121.91c1.58,0 3.02,0.57 4.08,1.51l0.01 0c1.11,0.98 1.8,2.35 1.8,3.88 0,1.53 -0.69,2.91 -1.8,3.89l-0.13 0.1c-1.04,0.87 -2.44,1.41 -3.96,1.41 -1.58,0 -3.02,-0.58 -4.08,-1.52l-0.01 0.01c-1.11,-0.98 -1.8,-2.36 -1.8,-3.89 0,-1.53 0.69,-2.9 1.8,-3.88l0.13 -0.1c1.04,-0.88 2.44,-1.41 3.96,-1.41zm0 1.69c2.32,0 4.2,1.66 4.2,3.7 0,2.05 -1.88,3.7 -4.2,3.7 -2.32,0 -4.2,-1.65 -4.2,-3.7 0,-2.04 1.88,-3.7 4.2,-3.7z"/>
  <path class="fil1" d="M49.78 113.34c-2.81,3.59 -4.82,7.41 -6.05,11.31 -2.11,6.71 -1.93,13.68 0.4,20.25 2.34,6.59 6.85,12.78 13.37,17.88 5.05,3.94 11.3,7.24 18.7,9.57l-0.6 1.93c-7.64,-2.4 -14.11,-5.82 -19.35,-9.91 -6.83,-5.34 -11.57,-11.85 -14.03,-18.8 -2.48,-6.97 -2.67,-14.39 -0.42,-21.53 1.3,-4.12 3.42,-8.15 6.38,-11.95l1.6 1.25z"/>
  <path class="fil1" d="M122.62 113.34c2.81,3.59 4.81,7.41 6.04,11.31 2.12,6.71 1.94,13.68 -0.39,20.25 -2.34,6.59 -6.85,12.78 -13.37,17.88 -5.05,3.94 -11.31,7.24 -18.7,9.57l0.6 1.93c7.63,-2.4 14.11,-5.82 19.34,-9.91 6.84,-5.34 11.57,-11.85 14.04,-18.8 2.48,-6.97 2.67,-14.39 0.42,-21.53 -1.3,-4.12 -3.42,-8.15 -6.38,-11.95l-1.6 1.25z"/>
  <path class="fil6" d="M47.72 115.07c4,-2.21 2.78,-4.58 5.12,-6.49 -4,1.22 -5.71,3.38 -5.12,6.49z"/>
  <path class="fil10" d="M51.64 109.4c-1.07,1.7 -1.96,2.8 -2.66,3.32 0.39,-1.49 1.28,-2.59 2.66,-3.32z"/>
  <path class="fil6" d="M45.2 118.35c1.76,-4.86 -0.67,-6.12 -0.01,-9.52 -2.39,3.96 -2.38,7.13 0.01,9.52z"/>
  <path class="fil10" d="M44.75 110.43c0.21,2.29 0.2,3.92 -0.02,4.89 -0.62,-1.61 -0.61,-3.24 0.02,-4.89z"/>
  <path class="fil6" d="M43.69 122.6c0.72,-5.53 -1.91,-6.33 -1.97,-10.07 -1.52,4.72 -0.86,8.07 1.97,10.07z"/>
  <path class="fil10" d="M41.62 114.32c0.68,2.38 1.01,4.11 0.98,5.18 -0.93,-1.57 -1.26,-3.3 -0.98,-5.18z"/>
  <path class="fil6" d="M42.01 124.9c0.02,-5.59 -2.7,-6.05 -3.23,-9.75 -0.91,4.88 0.17,8.12 3.23,9.75z"/>
  <path class="fil10" d="M38.91 116.94c0.98,2.28 1.52,3.95 1.63,5.02 -1.12,-1.44 -1.67,-3.12 -1.63,-5.02z"/>
  <path class="fil6" d="M41.11 128.7c-0.74,-5.53 -3.49,-5.61 -4.52,-9.21 -0.24,4.95 1.27,8.02 4.52,9.21z"/>
  <path class="fil10" d="M36.96 121.25c1.27,2.12 2.04,3.7 2.3,4.74 -1.31,-1.27 -2.08,-2.85 -2.3,-4.74z"/>
  <path class="fil6" d="M40.72 132.23c-1.22,-5.45 -3.97,-5.29 -5.3,-8.79 0.19,4.96 1.96,7.89 5.3,8.79z"/>
  <path class="fil10" d="M35.94 125.16c1.45,2 2.35,3.51 2.7,4.53 -1.42,-1.16 -2.32,-2.67 -2.7,-4.53z"/>
  <path class="fil6" d="M40.89 136.32c-1.61,-5.35 -4.34,-5 -5.92,-8.39 0.54,4.93 2.52,7.73 5.92,8.39z"/>
  <path class="fil10" d="M35.61 129.61c1.59,1.89 2.6,3.33 3.02,4.32 -1.5,-1.05 -2.5,-2.49 -3.02,-4.32z"/>
  <path class="fil6" d="M41.17 140.12c-2,-5.21 -4.7,-4.66 -6.53,-7.92 0.91,4.88 3.09,7.52 6.53,7.92z"/>
  <path class="fil10" d="M35.41 133.82c1.73,1.77 2.84,3.14 3.33,4.09 -1.57,-0.93 -2.68,-2.3 -3.33,-4.09z"/>
  <path class="fil6" d="M42.12 143.82c-2.47,-5.01 -5.1,-4.22 -7.22,-7.3 1.35,4.77 3.76,7.21 7.22,7.3z"/>
  <path class="fil10" d="M35.81 138.07c1.88,1.6 3.11,2.86 3.69,3.77 -1.65,-0.79 -2.88,-2.05 -3.69,-3.77z"/>
  <path class="fil6" d="M43.41 147.29c-3.33,-4.6 -5.95,-3.43 -8.62,-6.17 2.13,4.52 5,6.58 8.62,6.17z"/>
  <path class="fil10" d="M35.97 142.51c2.2,1.32 3.67,2.38 4.41,3.2 -1.83,-0.55 -3.3,-1.61 -4.41,-3.2z"/>
  <path class="fil6" d="M45.26 150.42c-4.15,-4.05 -6.67,-2.5 -9.85,-4.82 2.9,4.16 6.18,5.77 9.85,4.82z"/>
  <path class="fil10" d="M36.84 146.81c2.48,0.97 4.16,1.8 5.05,2.5 -1.98,-0.26 -3.66,-1.1 -5.05,-2.5z"/>
  <path class="fil6" d="M47.22 154c-4.15,-4.05 -6.67,-2.5 -9.86,-4.82 2.9,4.16 6.19,5.77 9.86,4.82z"/>
  <path class="fil10" d="M38.8 150.39c2.48,0.97 4.16,1.81 5.05,2.5 -1.98,-0.26 -3.66,-1.1 -5.05,-2.5z"/>
  <path class="fil6" d="M49.73 158.09c-4.14,-4.06 -6.67,-2.51 -9.85,-4.82 2.9,4.16 6.19,5.76 9.85,4.82z"/>
  <path class="fil10" d="M41.32 154.48c2.48,0.97 4.16,1.8 5.05,2.5 -1.98,-0.27 -3.67,-1.1 -5.05,-2.5z"/>
  <path class="fil6" d="M53.15 161.62c-4.76,-3.31 -7,-1.36 -10.52,-3.12 3.55,3.62 7.06,4.66 10.52,3.12z"/>
  <path class="fil10" d="M44.25 159.45c2.6,0.55 4.4,1.09 5.39,1.63 -1.99,0.07 -3.79,-0.47 -5.39,-1.63z"/>
  <path class="fil6" d="M57.91 165.7c-4.77,-3.31 -7,-1.36 -10.52,-3.11 3.55,3.62 7.06,4.65 10.52,3.11z"/>
  <path class="fil10" d="M49.01 163.54c2.6,0.54 4.4,1.09 5.39,1.63 -2,0.07 -3.79,-0.48 -5.39,-1.63z"/>
  <path class="fil6" d="M45.54 119.19c4.38,-1.15 4.59,-3.86 7.46,-5.14 -3.87,0.14 -6.36,1.86 -7.46,5.14z"/>
  <path class="fil10" d="M51.61 114.55c-1.73,1.41 -3.02,2.28 -3.85,2.61 1.07,-1.38 2.35,-2.25 3.85,-2.61z"/>
  <path class="fil6" d="M43.8 123.16c5.39,-1.15 5.65,-3.86 9.18,-5.14 -4.76,0.15 -7.82,1.86 -9.18,5.14z"/>
  <path class="fil10" d="M51.26 118.52c-2.12,1.41 -3.7,2.28 -4.73,2.62 1.32,-1.39 2.9,-2.26 4.73,-2.62z"/>
  <path class="fil6" d="M42.12 128.2c5.61,-1.74 5.57,-4.46 9.18,-6.12 -5.06,0.67 -8.12,2.71 -9.18,6.12z"/>
  <path class="fil10" d="M49.53 122.76c-2.1,1.64 -3.68,2.68 -4.73,3.12 1.24,-1.52 2.81,-2.56 4.73,-3.12z"/>
  <path class="fil6" d="M41.9 132.57c5.26,-2.6 4.79,-5.28 8.1,-7.5 -4.89,1.46 -7.59,3.96 -8.1,7.5z"/>
  <path class="fil10" d="M48.36 126.03c-1.82,1.95 -3.21,3.22 -4.18,3.83 0.98,-1.7 2.37,-2.98 4.18,-3.83z"/>
  <path class="fil6" d="M42.07 136.82c5.01,-3.05 4.31,-5.68 7.41,-8.17 -4.75,1.88 -7.22,4.6 -7.41,8.17z"/>
  <path class="fil10" d="M47.93 129.74c-1.64,2.1 -2.92,3.5 -3.83,4.18 0.83,-1.77 2.11,-3.17 3.83,-4.18z"/>
  <path class="fil6" d="M42.18 141.13c4.95,-3.65 3.86,-6.17 6.85,-9.03 -4.82,2.45 -7.1,5.46 -6.85,9.03z"/>
  <path class="fil10" d="M47.52 133.38c-1.48,2.29 -2.66,3.83 -3.55,4.62 0.66,-1.86 1.84,-3.4 3.55,-4.62z"/>
  <path class="fil6" d="M42.96 144.94c4.66,-4.02 3.38,-6.45 6.14,-9.53 -4.62,2.81 -6.66,5.99 -6.14,9.53z"/>
  <path class="fil10" d="M47.69 136.8c-1.3,2.39 -2.36,4.02 -3.18,4.88 0.51,-1.91 1.57,-3.54 3.18,-4.88z"/>
  <path class="fil6" d="M44.98 149.02c4.16,-4.53 2.61,-6.79 4.99,-10.17 -4.26,3.33 -5.92,6.72 -4.99,10.17z"/>
  <path class="fil10" d="M48.73 140.4c-1.01,2.52 -1.88,4.26 -2.59,5.21 0.28,-1.96 1.15,-3.7 2.59,-5.21z"/>
  <path class="fil6" d="M47.27 153.05c3.62,-4.98 1.81,-7.05 3.79,-10.68 -3.85,3.8 -5.11,7.36 -3.79,10.68z"/>
  <path class="fil10" d="M50.01 144.05c-0.72,2.63 -1.38,4.45 -1.98,5.48 0.06,-1.98 0.72,-3.8 1.98,-5.48z"/>
  <path class="fil6" d="M49.96 156.8c3.18,-5.26 1.21,-7.17 2.87,-10.96 -3.51,4.11 -4.47,7.76 -2.87,10.96z"/>
  <path class="fil10" d="M51.93 147.6c-0.49,2.68 -1,4.55 -1.51,5.63 -0.11,-1.98 0.39,-3.85 1.51,-5.63z"/>
  <path class="fil6" d="M52.53 160.27c2.48,-5.63 0.28,-7.27 1.44,-11.24 -2.95,4.53 -3.43,8.27 -1.44,11.24z"/>
  <path class="fil10" d="M53.3 150.9c-0.14,2.71 -0.4,4.64 -0.77,5.77 -0.36,-1.95 -0.1,-3.87 0.77,-5.77z"/>
  <path class="fil6" d="M55.22 163.24c2.62,-5.57 0.46,-7.26 1.73,-11.2 -3.07,4.45 -3.65,8.18 -1.73,11.2z"/>
  <path class="fil10" d="M56.23 153.89c-0.21,2.71 -0.52,4.63 -0.92,5.75 -0.31,-1.96 0,-3.87 0.92,-5.75z"/>
  <path class="fil6" d="M59.93 166.3c1.95,-5.93 -1.37,-7.25 -0.77,-11.34 -2.85,4.9 -2.6,8.68 0.77,11.34z"/>
  <path class="fil10" d="M58.7 156.9c0.47,2.71 0.59,4.66 0.36,5.83 -0.94,-1.88 -1.06,-3.82 -0.36,-5.83z"/>
  <path class="fil3" d="M101.92 165.58c5.67,-6.39 11.76,-8.05 17.28,-4.04 -3.75,3.26 -9.84,4.93 -17.28,4.04z"/>
  <path class="fil8" d="M101.79 165.47c2.89,-3.26 5.9,-5.3 8.89,-6 2.93,-0.69 5.85,-0.08 8.62,1.94l0.17 0.12 -0.16 0.14c-1.94,1.69 -4.5,2.95 -7.54,3.66 -2.89,0.68 -6.22,0.85 -9.87,0.42l-0.32 -0.04 0.21 -0.24zm8.96 -5.67c-2.84,0.66 -5.71,2.58 -8.49,5.65 3.49,0.38 6.67,0.2 9.44,-0.45 2.9,-0.68 5.35,-1.86 7.22,-3.45 -2.63,-1.85 -5.39,-2.4 -8.17,-1.75z"/>
  <path class="fil11" d="M104 164.54c3.51,-3.07 9.3,-4.42 12.39,-3.07 -3.48,-0.61 -7.61,0.41 -12.39,3.07z"/>
  <path class="fil3" d="M113.81 157.23c3.38,-5.99 7.78,-8.26 12.58,-5.92 -2.37,3.19 -6.77,5.47 -12.58,5.92z"/>
  <path class="fil8" d="M113.7 157.16c1.72,-3.05 3.71,-5.15 5.89,-6.17 2.13,-1.01 4.45,-0.98 6.86,0.2l0.15 0.07 -0.1 0.14c-1.23,1.65 -2.99,3.06 -5.21,4.1 -2.1,0.99 -4.62,1.65 -7.47,1.87l-0.25 0.02 0.13 -0.23zm6 -5.92c-2.08,0.97 -3.98,2.95 -5.64,5.84 2.71,-0.24 5.11,-0.88 7.13,-1.83 2.11,-1 3.8,-2.33 5,-3.88 -2.29,-1.07 -4.47,-1.08 -6.49,-0.13z"/>
  <path class="fil11" d="M115.25 156.08c2.22,-3 6.43,-4.98 8.99,-4.39 -2.74,0.06 -5.74,1.52 -8.99,4.39z"/>
  <path class="fil3" d="M121.4 147.39c0.44,-6.86 3.41,-10.82 8.76,-10.79 -0.76,3.9 -3.73,7.86 -8.76,10.79z"/>
  <path class="fil8" d="M121.26 147.38c0.23,-3.5 1.11,-6.26 2.62,-8.12 1.49,-1.84 3.59,-2.81 6.27,-2.8l0.17 0 -0.03 0.17c-0.39,2.02 -1.37,4.05 -2.91,5.95 -1.47,1.81 -3.44,3.49 -5.91,4.93l-0.22 0.13 0.01 -0.26zm2.83 -7.94c-1.44,1.77 -2.3,4.39 -2.54,7.7 2.34,-1.39 4.22,-3.01 5.62,-4.74 1.48,-1.81 2.42,-3.74 2.82,-5.67 -2.52,0.03 -4.49,0.97 -5.9,2.71z"/>
  <path class="fil11" d="M122.19 145.73c0.69,-3.67 3.63,-7.28 6.19,-7.86 -2.44,1.24 -4.51,3.86 -6.19,7.86z"/>
  <path class="fil3" d="M124.3 137.63c-2.03,-6.57 -0.66,-11.33 4.35,-13.2 0.68,3.92 -0.69,8.67 -4.35,13.2z"/>
  <path class="fil8" d="M124.17 137.67c-1.03,-3.35 -1.19,-6.24 -0.44,-8.52 0.74,-2.25 2.35,-3.91 4.87,-4.85l0.15 -0.06 0.03 0.17c0.36,2.03 0.17,4.27 -0.6,6.6 -0.72,2.21 -1.97,4.49 -3.77,6.71l-0.16 0.19 -0.08 -0.24zm-0.18 -8.43c-0.72,2.17 -0.59,4.92 0.36,8.11 1.7,-2.14 2.88,-4.32 3.58,-6.44 0.73,-2.21 0.92,-4.36 0.62,-6.3 -2.35,0.93 -3.86,2.51 -4.56,4.63z"/>
  <path class="fil11" d="M124.45 135.8c-0.65,-3.68 0.81,-8.1 3,-9.55 -1.85,2.03 -2.85,5.21 -3,9.55z"/>
  <path class="fil3" d="M121.1 127.68c-4.05,-5.56 -4.3,-10.5 -0.17,-13.9 1.92,3.48 2.17,8.43 0.17,13.9z"/>
  <path class="fil8" d="M120.99 127.75c-2.06,-2.83 -3.15,-5.51 -3.18,-7.91 -0.03,-2.36 0.96,-4.46 3.03,-6.16l0.13 -0.11 0.08 0.15c0.99,1.8 1.54,3.99 1.57,6.44 0.03,2.32 -0.41,4.88 -1.39,7.57l-0.08 0.23 -0.16 -0.21zm-2.91 -7.91c0.03,2.29 1.05,4.85 2.98,7.55 0.91,-2.57 1.32,-5.01 1.29,-7.24 -0.03,-2.33 -0.54,-4.43 -1.46,-6.16 -1.92,1.63 -2.83,3.62 -2.81,5.85z"/>
  <path class="fil11" d="M120.65 125.9c-1.81,-3.27 -1.87,-7.92 -0.27,-10.01 -1.08,2.52 -1,5.86 0.27,10.01z"/>
  <path class="fil3" d="M116.5 175.99c-2.55,-7.19 -1.06,-12.6 4.78,-15.07 0.9,4.32 -0.59,9.74 -4.78,15.07z"/>
  <path class="fil8" d="M116.35 176.03c-1.3,-3.66 -1.56,-6.87 -0.73,-9.47 0.81,-2.56 2.67,-4.53 5.59,-5.77l0.19 -0.08 0.03 0.18c0.47,2.24 0.3,4.76 -0.54,7.41 -0.8,2.52 -2.21,5.16 -4.26,7.78l-0.19 0.22 -0.09 -0.27zm-0.43 -9.39c-0.78,2.48 -0.56,5.54 0.63,9.02 1.94,-2.51 3.27,-5.03 4.04,-7.44 0.8,-2.53 0.98,-4.94 0.57,-7.08 -2.73,1.2 -4.47,3.08 -5.24,5.5z"/>
  <path class="fil11" d="M116.63 173.93c-0.86,-4.06 0.75,-9.1 3.28,-10.88 -2.12,2.4 -3.21,6.03 -3.28,10.88z"/>
  <path class="fil3" d="M129.35 166.56c-5.42,-4.61 -6.6,-9.52 -2.75,-13.93 2.73,3.04 3.91,7.95 2.75,13.93z"/>
  <path class="fil8" d="M129.25 166.66c-2.77,-2.35 -4.44,-4.78 -4.92,-7.19 -0.46,-2.37 0.22,-4.71 2.15,-6.92l0.12 -0.14 0.12 0.13c1.41,1.57 2.41,3.64 2.89,6.09 0.47,2.33 0.46,5.01 -0.11,7.95l-0.05 0.26 -0.2 -0.18zm-4.62 -7.25c0.45,2.29 2.03,4.62 4.63,6.87 0.51,-2.8 0.5,-5.36 0.06,-7.59 -0.47,-2.34 -1.4,-4.32 -2.72,-5.84 -1.79,2.1 -2.41,4.32 -1.97,6.56z"/>
  <path class="fil11" d="M128.53 164.88c-2.57,-2.85 -3.48,-7.52 -2.13,-10 -0.72,2.8 -0.01,6.13 2.13,10z"/>
  <path class="fil3" d="M137.15 157.28c-6.15,-3.94 -8.02,-8.77 -4.71,-13.78 3.18,2.71 5.06,7.54 4.71,13.78z"/>
  <path class="fil8" d="M137.06 157.4c-3.14,-2.01 -5.17,-4.25 -5.99,-6.64 -0.8,-2.34 -0.42,-4.81 1.24,-7.33l0.1 -0.15 0.14 0.11c1.64,1.41 2.95,3.37 3.78,5.79 0.78,2.31 1.15,5.04 0.98,8.1l-0.02 0.27 -0.23 -0.15zm-5.69 -6.74c0.77,2.27 2.69,4.42 5.64,6.36 0.14,-2.92 -0.22,-5.53 -0.98,-7.73 -0.79,-2.32 -2.02,-4.2 -3.57,-5.57 -1.52,2.39 -1.85,4.73 -1.09,6.94z"/>
  <path class="fil11" d="M136.08 155.69c-3,-2.54 -4.57,-7.16 -3.54,-9.87 -0.34,2.94 0.84,6.23 3.54,9.87z"/>
  <path class="fil3" d="M141.69 144.06c-7.04,-1.92 -10.28,-5.97 -8.62,-11.74 3.85,1.64 7.09,5.68 8.62,11.74z"/>
  <path class="fil8" d="M141.64 144.2c-3.59,-0.98 -6.21,-2.51 -7.7,-4.54 -1.46,-2 -1.85,-4.47 -1.02,-7.37l0.05 -0.17 0.17 0.07c1.99,0.84 3.82,2.32 5.34,4.39 1.44,1.96 2.61,4.46 3.36,7.43l0.07 0.26 -0.27 -0.07zm-7.45 -4.73c1.42,1.94 3.89,3.41 7.29,4.37 -0.75,-2.82 -1.87,-5.2 -3.25,-7.08 -1.45,-1.97 -3.18,-3.39 -5.07,-4.23 -0.74,2.73 -0.36,5.06 1.03,6.94z"/>
  <path class="fil11" d="M140.2 142.86c-3.63,-1.53 -6.52,-5.47 -6.34,-8.36 0.55,2.91 2.67,5.69 6.34,8.36z"/>
  <path class="fil3" d="M140.9 126.1c-7.18,1.33 -11.85,-0.91 -12.87,-6.84 4.19,-0.19 8.86,2.05 12.87,6.84z"/>
  <path class="fil8" d="M140.91 126.25c-3.66,0.68 -6.68,0.43 -8.91,-0.75 -2.18,-1.16 -3.6,-3.22 -4.11,-6.2l-0.03 -0.18 0.18 -0.01c2.17,-0.1 4.46,0.44 6.72,1.65 2.15,1.14 4.28,2.88 6.25,5.24l0.17 0.2 -0.27 0.05zm-8.76 -1.03c2.12,1.13 4.98,1.38 8.46,0.78 -1.89,-2.22 -3.93,-3.87 -5.99,-4.97 -2.16,-1.15 -4.35,-1.68 -6.41,-1.62 0.52,2.78 1.87,4.71 3.94,5.81z"/>
  <path class="fil11" d="M139.03 125.67c-3.93,0.2 -8.24,-2.1 -9.33,-4.78 1.76,2.38 4.87,3.97 9.33,4.78z"/>
  <path class="fil3" d="M136.46 115.86c-7.09,1.77 -11.89,-0.17 -13.27,-6.02 4.16,-0.46 8.96,1.49 13.27,6.02z"/>
  <path class="fil8" d="M136.48 116.01c-3.62,0.9 -6.65,0.85 -8.94,-0.19 -2.25,-1.03 -3.8,-2.99 -4.49,-5.93l-0.04 -0.18 0.17 -0.02c2.16,-0.24 4.48,0.16 6.81,1.22 2.22,1.01 4.46,2.61 6.57,4.84l0.18 0.19 -0.26 0.07zm-8.81 -0.48c2.18,0.99 5.06,1.07 8.49,0.25 -2.03,-2.1 -4.17,-3.62 -6.29,-4.59 -2.23,-1.01 -4.44,-1.4 -6.5,-1.21 0.69,2.74 2.17,4.59 4.3,5.55z"/>
  <path class="fil11" d="M134.56 115.54c-3.91,0.45 -8.35,-1.58 -9.61,-4.18 1.9,2.26 5.11,3.66 9.61,4.18z"/>
  <circle class="fil12" cx="114.65" cy="164.16" r="1.22"/>
  <circle class="fil12" cx="115.73" cy="165.94" r="1.22"/>
  <circle class="fil12" cx="117.83" cy="162.36" r="1.22"/>
  <circle class="fil12" cx="127.28" cy="151.6" r="1.22"/>
  <circle class="fil12" cx="130.26" cy="152.05" r="1.22"/>
  <circle class="fil12" cx="129.57" cy="148.43" r="1.22"/>
  <circle class="fil12" cx="126.63" cy="148.46" r="1.22"/>
  <circle class="fil12" cx="131.73" cy="142.94" r="1.22"/>
  <circle class="fil12" cx="129.86" cy="141.07" r="1.22"/>
  <circle class="fil12" cx="131.13" cy="137.96" r="1.22"/>
  <circle class="fil12" cx="129.71" cy="132.58" r="1.22"/>
  <circle class="fil12" cx="130.14" cy="129.89" r="1.22"/>
  <circle class="fil12" cx="131.55" cy="127.35" r="1.22"/>
  <circle class="fil12" cx="128.78" cy="124.41" r="1.22"/>
  <circle class="fil12" cx="124.87" cy="114.96" r="1.22"/>
  <circle class="fil12" cx="121.52" cy="114.67" r="1.22"/>
  <circle class="fil12" cx="119.35" cy="114.04" r="1.22"/>
  <circle class="fil12" cx="118.82" cy="111.07" r="1.22"/>
  <circle class="fil12" cx="121.91" cy="111.95" r="1.22"/>
  <circle class="fil12" cx="121.28" cy="109.64" r="1.22"/>
  <path class="fil13" d="M68.36 181.89c-0.16,0.09 -0.37,0.03 -0.46,-0.13 -0.09,-0.16 -0.03,-0.37 0.13,-0.46 2.72,-1.55 4.54,-2.41 5.51,-2.58 1.43,-0.26 1.61,0.42 0.59,2.04 -0.23,0.37 -0.19,0.51 0.04,0.49 0.61,-0.05 1.7,-0.45 3.05,-1.04 1.91,-0.84 2.99,-1.14 3.56,-1.16 0.34,-0.01 0.57,0.09 0.7,0.24 0.15,0.19 0.16,0.41 0.09,0.65 -0.11,0.32 -0.41,0.7 -0.66,0.97 -0.02,0.02 -0.52,-0.01 -0.28,0.01 0.38,0.05 1.39,-0.11 3.66,-0.65 1.74,-0.41 2.64,-0.9 3.06,-1.12 0.18,-0.1 0.29,-0.16 0.41,-0.17l0.01 0c0.56,-0.05 0.49,0.19 0.31,0.79 -0.05,0.14 -0.11,0.33 -0.18,0.61l0 0.01c0.07,0.04 0.19,0.05 0.38,0.05 0.41,-0.01 1.04,-0.13 2,-0.42 1.2,-0.37 1.97,-0.54 2.29,-0.46 0.18,0.04 0.3,0.11 0.37,0.2 0.77,-0.79 1.35,-1.45 1.73,-1.91 0.22,-0.3 0.37,-0.5 0.47,-0.62l0.12 -0.15c0.38,-0.64 0.74,-0.99 0.97,-1.09 0.31,-0.29 0.38,-0.22 0.26,0.12 0.02,0.23 -0.17,0.67 -0.65,1.32l-0.04 0.07c-0.03,0.04 -0.11,0.15 -0.24,0.33l-0.34 0.42c-0.2,0.26 -0.44,0.61 -0.74,1.04l-0.01 0.02c-0.29,0.44 -0.38,0.85 -0.31,1.19 0.05,0.23 0.17,0.43 0.34,0.59l0.01 0.01c0.17,0.17 0.4,0.29 0.66,0.35 0.52,0.13 1.18,0.03 1.86,-0.39 1.13,-0.7 2.11,-0.79 2.84,-0.6 0.27,-0.23 0.63,-0.44 1.12,-0.58 0.79,-0.25 1.44,-0.46 2.03,-0.7 0.57,-0.24 1.07,-0.51 1.59,-0.89 0.15,-0.11 0.36,-0.07 0.47,0.08 0.11,0.15 0.07,0.36 -0.08,0.47 -0.56,0.41 -1.11,0.7 -1.72,0.96 -0.61,0.25 -1.28,0.47 -2.1,0.72 -0.24,0.07 -0.44,0.16 -0.61,0.26 0.17,0.12 0.3,0.25 0.41,0.39 0.15,0.21 0.24,0.44 0.26,0.66 0.01,0.37 -0.17,0.71 -0.58,0.89 -0.41,0.19 -0.79,0.09 -1.06,-0.17 -0.15,-0.13 -0.25,-0.31 -0.31,-0.52 -0.05,-0.19 -0.06,-0.41 -0.01,-0.64 0.02,-0.11 0.06,-0.22 0.11,-0.33 -0.53,-0.06 -1.21,0.08 -2,0.57 -0.85,0.53 -1.69,0.64 -2.37,0.48 -0.39,-0.1 -0.72,-0.28 -0.98,-0.52l-0.01 -0.01c-0.27,-0.25 -0.45,-0.58 -0.53,-0.94 -0.03,-0.15 -0.04,-0.3 -0.03,-0.46l-0.56 0.56c-0.64,0.64 -1.12,1.02 -1.39,1.16l-0.02 0.01c-0.17,0.1 -0.33,0.11 -0.45,0.06 -0.24,-0.11 -0.3,-0.31 -0.14,-0.58 0.09,-0.16 0.34,-0.44 0.75,-0.81 0.34,-0.29 0.92,-0.32 0.75,-0.36 -0.19,-0.05 -0.85,0.11 -1.94,0.45 -1.01,0.31 -1.71,0.43 -2.17,0.45 -0.32,0 -0.55,-0.05 -0.71,-0.13 -0.23,-0.12 -0.34,-0.29 -0.36,-0.5 -0.01,-0.09 0,-0.18 0.02,-0.27l0.08 -0.3c-0.53,0.27 -1.43,0.66 -2.89,1.01 -2.34,0.56 -3.43,0.72 -3.88,0.67 -1.07,-0.13 -0.64,-0.61 -0.14,-1.15 0.2,-0.22 0.43,-0.51 0.5,-0.72 0.01,-0.02 0.06,0.02 0.04,0 0,-0.01 -0.05,-0.01 -0.16,0 -0.5,0.01 -1.49,0.3 -3.31,1.1 -1.41,0.62 -2.57,1.03 -3.26,1.1 -1.08,0.09 -1.41,-0.34 -0.67,-1.53 0.47,-0.76 0.51,-1.1 0.1,-1.02 -0.89,0.16 -2.64,1 -5.3,2.51zm32.08 -0.32c-0.09,-0.12 -0.22,-0.23 -0.38,-0.32 -0.06,0.1 -0.1,0.19 -0.12,0.29 -0.03,0.11 -0.02,0.22 0,0.31 0.03,0.09 0.07,0.16 0.12,0.21 0.08,0.08 0.2,0.1 0.33,0.05 0.12,-0.06 0.18,-0.15 0.17,-0.25 0,-0.09 -0.05,-0.19 -0.12,-0.29z"/>
  <path class="fil5" d="M56.61 187.21c4.67,1.83 7.02,5.6 7.05,11.3 -6.15,0.2 -10.55,-1.29 -13.21,-4.47 -1.29,2.81 -3,4.64 -5.15,5.48 -1.19,-3.76 -0.52,-6.71 2.02,-8.84 -2.63,0.54 -4.87,0.46 -6.72,-0.23 5.63,-4.74 10.97,-5.82 16.01,-3.24z"/>
  <path class="fil1" d="M56.77 186.82c2.42,0.95 4.24,2.41 5.47,4.37 1.21,1.95 1.83,4.39 1.85,7.32 0,0.23 -0.19,0.42 -0.41,0.42 -3.13,0.1 -5.82,-0.23 -8.07,-0.99 -2.05,-0.69 -3.73,-1.74 -5.05,-3.15 -0.6,1.19 -1.29,2.2 -2.05,3.02 -0.91,0.96 -1.92,1.66 -3.05,2.1 -0.22,0.09 -0.46,-0.02 -0.55,-0.23l-0.01 -0.03c-0.62,-1.95 -0.75,-3.71 -0.4,-5.26 0.26,-1.14 0.78,-2.16 1.57,-3.07 -0.85,0.11 -1.65,0.15 -2.42,0.13 -1.16,-0.04 -2.23,-0.24 -3.19,-0.6 -0.22,-0.08 -0.33,-0.33 -0.25,-0.54 0.03,-0.08 0.08,-0.15 0.14,-0.19 5.75,-4.84 11.23,-5.94 16.42,-3.3zm4.75 4.81c-1.13,-1.8 -2.82,-3.15 -5.06,-4.03l-0.04 -0.02c-4.7,-2.4 -9.68,-1.5 -14.95,2.71 0.69,0.18 1.42,0.29 2.21,0.31 1.08,0.04 2.26,-0.07 3.53,-0.33 0.16,-0.04 0.33,0.01 0.43,0.14 0.15,0.17 0.13,0.44 -0.05,0.59 -1.2,1.01 -1.95,2.2 -2.27,3.58 -0.29,1.28 -0.2,2.74 0.25,4.37 0.85,-0.4 1.62,-0.98 2.32,-1.72 0.82,-0.88 1.55,-1.99 2.17,-3.35 0.03,-0.06 0.07,-0.12 0.12,-0.17 0.18,-0.15 0.45,-0.12 0.6,0.05 1.28,1.53 2.98,2.66 5.1,3.38 2.06,0.7 4.51,1.02 7.36,0.96 -0.07,-2.58 -0.64,-4.74 -1.72,-6.47z"/>
  <path class="fil5" d="M116.39 187.21c-4.67,1.83 -7.02,5.6 -7.05,11.3 6.15,0.2 10.55,-1.29 13.21,-4.47 1.29,2.81 3,4.64 5.15,5.48 1.19,-3.76 0.52,-6.71 -2.02,-8.84 2.63,0.54 4.87,0.46 6.72,-0.23 -5.63,-4.74 -10.97,-5.82 -16.01,-3.24z"/>
  <path class="fil1" d="M116.54 187.6c-2.24,0.88 -3.93,2.23 -5.06,4.03 -1.08,1.73 -1.65,3.89 -1.72,6.47 2.85,0.06 5.3,-0.26 7.36,-0.96 2.12,-0.72 3.82,-1.85 5.1,-3.38 0.15,-0.17 0.42,-0.2 0.6,-0.05 0.05,0.05 0.09,0.11 0.12,0.17 0.62,1.36 1.35,2.47 2.17,3.35 0.7,0.74 1.47,1.32 2.32,1.72 0.45,-1.63 0.54,-3.09 0.25,-4.37 -0.32,-1.38 -1.07,-2.57 -2.27,-3.58 -0.18,-0.15 -0.2,-0.42 -0.05,-0.59 0.1,-0.13 0.27,-0.18 0.43,-0.14 1.27,0.26 2.45,0.37 3.53,0.33 0.79,-0.02 1.52,-0.13 2.21,-0.31 -5.27,-4.21 -10.25,-5.11 -14.95,-2.71l-0.04 0.02zm-5.78 3.59c1.23,-1.96 3.05,-3.42 5.47,-4.37 5.19,-2.64 10.67,-1.54 16.42,3.3 0.06,0.04 0.11,0.11 0.14,0.19 0.08,0.21 -0.03,0.46 -0.25,0.54 -0.96,0.36 -2.03,0.56 -3.19,0.6 -0.77,0.02 -1.57,-0.02 -2.42,-0.13 0.79,0.91 1.31,1.93 1.57,3.07 0.35,1.55 0.22,3.31 -0.4,5.26l-0.01 0.03c-0.09,0.21 -0.33,0.32 -0.55,0.23 -1.13,-0.44 -2.14,-1.14 -3.05,-2.1 -0.76,-0.82 -1.45,-1.83 -2.05,-3.02 -1.32,1.41 -3,2.46 -5.05,3.15 -2.25,0.76 -4.94,1.09 -8.07,0.99 -0.22,0 -0.41,-0.19 -0.41,-0.42 0.02,-2.93 0.64,-5.37 1.85,-7.32z"/>
  <path class="fil7" d="M57.73 194.82c4.72,0.32 5.52,1.33 5.93,3.69l1.12 -11.41 -5.05 -3.94c-5.71,-1.83 -8.54,11.21 -2,11.66z"/>
  <path class="fil7" d="M115.27 194.82c-4.72,0.32 -5.52,1.33 -5.93,3.69l-1.12 -11.41 5.05 -3.94c5.71,-1.83 8.54,11.21 2,11.66z"/>
  <path class="fil5" d="M54.94 189.65c-1.76,-4.74 3.45,-7.18 4.79,-6.49 17.11,8.76 36.43,8.76 53.54,0 1.34,-0.69 6.55,1.75 4.79,6.49 -12.34,11.93 -50.78,11.93 -63.12,0z"/>
  <path class="fil1" d="M54.54 189.79c-0.61,-1.66 -0.43,-3.07 0.14,-4.18 0.35,-0.69 0.85,-1.26 1.4,-1.72 0.55,-0.45 1.15,-0.78 1.72,-0.99 0.85,-0.32 1.64,-0.36 2.12,-0.12 8.49,4.35 17.54,6.52 26.58,6.52 9.04,0 18.09,-2.17 26.58,-6.52 0.48,-0.24 1.27,-0.2 2.12,0.12 0.57,0.21 1.17,0.54 1.72,0.99 0.55,0.46 1.05,1.03 1.4,1.72 0.58,1.12 0.75,2.53 0.14,4.19 -0.03,0.06 -0.06,0.11 -0.11,0.16 -6.25,6.04 -19.06,9.06 -31.85,9.06 -12.79,0 -25.6,-3.02 -31.85,-9.06 -0.06,-0.05 -0.09,-0.11 -0.11,-0.17zm0.89 -3.8c-0.47,0.91 -0.61,2.06 -0.13,3.42 6.11,5.84 18.65,8.76 31.2,8.76 12.55,0 25.09,-2.92 31.2,-8.76 0.48,-1.36 0.34,-2.51 -0.13,-3.42 -0.29,-0.57 -0.71,-1.06 -1.18,-1.44 -0.48,-0.39 -1,-0.68 -1.49,-0.86 -0.62,-0.24 -1.17,-0.29 -1.44,-0.16 -8.61,4.42 -17.79,6.62 -26.96,6.62 -9.17,0 -18.35,-2.2 -26.96,-6.62 -0.27,-0.13 -0.82,-0.08 -1.44,0.16 -0.49,0.18 -1.01,0.47 -1.49,0.86 -0.47,0.38 -0.89,0.87 -1.18,1.44z"/>
  <path class="fil1" d="M59.09 188.39l0.6 0.31c-0.09,0.21 -0.11,0.39 -0.06,0.55 0.05,0.15 0.16,0.29 0.34,0.4 0.18,0.12 0.35,0.17 0.5,0.15 0.14,-0.02 0.25,-0.08 0.32,-0.19 0.04,-0.07 0.06,-0.14 0.05,-0.21 -0.01,-0.07 -0.06,-0.16 -0.13,-0.26 -0.06,-0.07 -0.18,-0.2 -0.39,-0.42 -0.26,-0.27 -0.42,-0.51 -0.47,-0.7 -0.08,-0.27 -0.04,-0.52 0.11,-0.75 0.09,-0.15 0.22,-0.26 0.38,-0.34 0.17,-0.07 0.35,-0.1 0.55,-0.06 0.2,0.03 0.41,0.12 0.63,0.26 0.36,0.23 0.58,0.48 0.66,0.76 0.08,0.27 0.04,0.55 -0.12,0.82l-0.6 -0.35c0.07,-0.17 0.09,-0.31 0.05,-0.42 -0.04,-0.12 -0.14,-0.23 -0.31,-0.33 -0.16,-0.11 -0.32,-0.16 -0.46,-0.15 -0.09,0.01 -0.16,0.05 -0.2,0.12 -0.05,0.07 -0.06,0.15 -0.03,0.23 0.04,0.11 0.17,0.29 0.41,0.54 0.24,0.24 0.41,0.44 0.5,0.6 0.09,0.16 0.13,0.32 0.13,0.5 0,0.17 -0.06,0.35 -0.18,0.53 -0.1,0.16 -0.25,0.29 -0.43,0.38 -0.18,0.08 -0.38,0.11 -0.6,0.07 -0.21,-0.03 -0.44,-0.13 -0.69,-0.29 -0.36,-0.23 -0.59,-0.5 -0.68,-0.79 -0.09,-0.29 -0.05,-0.61 0.12,-0.96zm5.09 3.96l-0.68 -0.32 0.07 -0.83 -1.24 -0.58 -0.59 0.58 -0.66 -0.32 2.67 -2.52 0.66 0.32 -0.23 3.67zm-0.56 -1.77l0.11 -1.34 -0.96 0.94 0.85 0.4zm0.93 1.86l1.11 -3.23 0.64 0.21 0.58 2.63 0.75 -2.17 0.6 0.21 -1.12 3.24 -0.65 -0.23 -0.57 -2.58 -0.74 2.13 -0.6 -0.21zm5.11 0.3l0.14 -0.56 1.44 0.37 -0.34 1.32c-0.17,0.1 -0.41,0.17 -0.7,0.21 -0.29,0.03 -0.57,0.02 -0.85,-0.05 -0.34,-0.09 -0.63,-0.24 -0.85,-0.45 -0.22,-0.21 -0.36,-0.47 -0.42,-0.77 -0.06,-0.31 -0.05,-0.62 0.03,-0.94 0.09,-0.34 0.24,-0.63 0.45,-0.86 0.22,-0.24 0.48,-0.39 0.79,-0.46 0.25,-0.06 0.52,-0.05 0.84,0.03 0.41,0.11 0.71,0.27 0.9,0.51 0.19,0.23 0.27,0.5 0.26,0.83l-0.7 -0.05c0,-0.17 -0.06,-0.32 -0.16,-0.45 -0.11,-0.13 -0.25,-0.21 -0.45,-0.26 -0.29,-0.08 -0.54,-0.04 -0.76,0.1 -0.22,0.14 -0.38,0.4 -0.47,0.76 -0.1,0.39 -0.09,0.71 0.04,0.95 0.12,0.24 0.32,0.4 0.61,0.47 0.14,0.04 0.28,0.05 0.44,0.03 0.15,-0.02 0.29,-0.06 0.41,-0.11l0.11 -0.42 -0.76 -0.2zm3.64 -1.36l1.34 0.24c0.27,0.04 0.47,0.09 0.59,0.13 0.13,0.05 0.24,0.11 0.33,0.2 0.09,0.09 0.16,0.2 0.21,0.33 0.05,0.13 0.06,0.27 0.04,0.41 -0.03,0.16 -0.1,0.3 -0.21,0.41 -0.1,0.12 -0.24,0.2 -0.39,0.24 0.19,0.09 0.33,0.22 0.42,0.39 0.08,0.16 0.11,0.34 0.07,0.53 -0.03,0.16 -0.09,0.3 -0.18,0.43 -0.1,0.13 -0.22,0.23 -0.36,0.3 -0.14,0.06 -0.3,0.09 -0.48,0.08 -0.12,-0.01 -0.39,-0.05 -0.82,-0.12l-1.15 -0.2 0.59 -3.37zm0.58 0.68l-0.13 0.78 0.44 0.07c0.26,0.05 0.43,0.07 0.5,0.08 0.11,0.01 0.21,-0.02 0.29,-0.07 0.08,-0.06 0.13,-0.14 0.15,-0.25 0.02,-0.1 0,-0.19 -0.05,-0.27 -0.04,-0.07 -0.12,-0.13 -0.23,-0.16 -0.07,-0.02 -0.26,-0.06 -0.58,-0.11l-0.39 -0.07zm-0.23 1.33l-0.16 0.91 0.63 0.11c0.25,0.04 0.4,0.06 0.47,0.06 0.1,0 0.2,-0.03 0.27,-0.09 0.08,-0.06 0.13,-0.15 0.15,-0.27 0.01,-0.1 0.01,-0.19 -0.03,-0.27 -0.04,-0.08 -0.1,-0.15 -0.19,-0.19 -0.09,-0.05 -0.28,-0.11 -0.59,-0.16l-0.55 -0.1zm2.88 -1.46l0.69 0.08 -0.23 1.84c-0.04,0.3 -0.05,0.49 -0.05,0.57 0.02,0.15 0.07,0.27 0.17,0.36 0.1,0.1 0.24,0.16 0.43,0.19 0.19,0.02 0.34,0 0.45,-0.07 0.11,-0.07 0.18,-0.16 0.22,-0.27 0.03,-0.11 0.06,-0.3 0.1,-0.57l0.23 -1.88 0.69 0.08 -0.22 1.79c-0.06,0.41 -0.11,0.69 -0.17,0.86 -0.06,0.16 -0.14,0.29 -0.25,0.4 -0.12,0.1 -0.26,0.18 -0.44,0.22 -0.17,0.05 -0.39,0.06 -0.66,0.03 -0.32,-0.04 -0.56,-0.11 -0.72,-0.21 -0.16,-0.09 -0.28,-0.21 -0.36,-0.34 -0.08,-0.13 -0.13,-0.26 -0.14,-0.4 -0.03,-0.2 -0.01,-0.49 0.04,-0.87l0.22 -1.81zm3 3.79l0.27 -3.41 1.04 0.08 0.42 2.38 0.79 -2.28 1.04 0.08 -0.28 3.41 -0.64 -0.05 0.22 -2.68 -0.89 2.63 -0.66 -0.06 -0.45 -2.74 -0.23 2.69 -0.63 -0.05zm3.95 0.25l0.12 -3.42 0.69 0.03 -0.12 3.41 -0.69 -0.02zm2.68 0.07l-0.02 -3.42 1.45 -0.01c0.36,0 0.63,0.02 0.8,0.08 0.16,0.06 0.3,0.17 0.4,0.33 0.1,0.16 0.15,0.33 0.15,0.54 0,0.25 -0.07,0.47 -0.22,0.63 -0.15,0.17 -0.37,0.28 -0.67,0.32 0.15,0.09 0.27,0.19 0.37,0.29 0.1,0.1 0.23,0.29 0.39,0.55l0.42 0.67 -0.82 0 -0.5 -0.74c-0.18,-0.27 -0.3,-0.43 -0.37,-0.5 -0.07,-0.07 -0.14,-0.12 -0.21,-0.14 -0.07,-0.03 -0.19,-0.04 -0.35,-0.04l-0.14 0 0.01 1.43 -0.69 0.01zm0.68 -1.98l0.51 0c0.33,-0.01 0.54,-0.02 0.62,-0.05 0.08,-0.03 0.15,-0.08 0.19,-0.15 0.05,-0.07 0.07,-0.15 0.07,-0.25 0,-0.12 -0.03,-0.21 -0.09,-0.28 -0.07,-0.07 -0.15,-0.12 -0.27,-0.13 -0.05,-0.01 -0.22,-0.02 -0.5,-0.01l-0.54 0 0.01 0.87zm2.57 -1.49l0.69 -0.04 0.11 1.85c0.01,0.29 0.03,0.48 0.06,0.57 0.03,0.14 0.11,0.25 0.22,0.32 0.12,0.08 0.27,0.12 0.46,0.1 0.2,-0.01 0.34,-0.05 0.43,-0.14 0.1,-0.09 0.15,-0.19 0.16,-0.31 0.02,-0.11 0.02,-0.31 0,-0.58l-0.11 -1.89 0.69 -0.04 0.11 1.8c0.02,0.41 0.02,0.7 -0.01,0.87 -0.03,0.17 -0.09,0.32 -0.18,0.44 -0.09,0.12 -0.22,0.22 -0.38,0.3 -0.17,0.08 -0.38,0.13 -0.65,0.14 -0.33,0.02 -0.58,0 -0.75,-0.06 -0.17,-0.07 -0.31,-0.16 -0.41,-0.28 -0.11,-0.11 -0.18,-0.23 -0.22,-0.36 -0.05,-0.2 -0.09,-0.48 -0.12,-0.87l-0.1 -1.82zm4.11 3.15l-1.16 -3.32 0.7 -0.07 0.76 2.28 0.37 -2.4 0.82 -0.09 0.84 2.31 0.27 -2.43 0.69 -0.07 -0.46 3.48 -0.73 0.08 -0.94 -2.47 -0.41 2.62 -0.75 0.08zm6.78 -0.97l-0.73 0.13 -0.43 -0.72 -1.35 0.24 -0.15 0.81 -0.72 0.13 0.72 -3.6 0.72 -0.13 1.94 3.14zm-1.48 -1.12l-0.69 -1.17 -0.23 1.33 0.92 -0.16zm3.32 -2.82l0.67 -0.17 0.53 2.1c0.07,0.28 0.1,0.49 0.09,0.65 -0.02,0.21 -0.1,0.4 -0.24,0.56 -0.14,0.16 -0.35,0.27 -0.63,0.34 -0.32,0.09 -0.6,0.06 -0.82,-0.08 -0.22,-0.14 -0.38,-0.39 -0.47,-0.74l0.62 -0.23c0.05,0.18 0.11,0.31 0.18,0.38 0.1,0.1 0.22,0.13 0.37,0.09 0.15,-0.03 0.24,-0.1 0.28,-0.2 0.04,-0.1 0.03,-0.29 -0.04,-0.56l-0.54 -2.14zm1.21 -0.29l0.66 -0.21 0.55 1.77c0.09,0.28 0.15,0.46 0.19,0.54 0.07,0.13 0.17,0.21 0.3,0.26 0.14,0.05 0.29,0.05 0.47,-0.01 0.19,-0.06 0.32,-0.14 0.39,-0.24 0.07,-0.11 0.1,-0.22 0.08,-0.34 -0.02,-0.12 -0.06,-0.3 -0.14,-0.56l-0.56 -1.81 0.66 -0.21 0.53 1.72c0.12,0.39 0.19,0.68 0.2,0.85 0.02,0.17 0,0.33 -0.07,0.47 -0.06,0.14 -0.16,0.27 -0.3,0.39 -0.14,0.11 -0.33,0.21 -0.59,0.29 -0.31,0.1 -0.56,0.13 -0.74,0.11 -0.19,-0.02 -0.34,-0.08 -0.47,-0.16 -0.13,-0.09 -0.23,-0.19 -0.3,-0.31 -0.1,-0.17 -0.2,-0.44 -0.32,-0.81l-0.54 -1.74zm4.3 2.21l-1.24 -3.19 1.36 -0.53c0.34,-0.13 0.6,-0.2 0.78,-0.2 0.17,0 0.34,0.05 0.48,0.16 0.16,0.11 0.27,0.26 0.34,0.45 0.09,0.24 0.1,0.47 0.02,0.68 -0.08,0.21 -0.25,0.39 -0.52,0.54 0.17,0.02 0.32,0.07 0.45,0.13 0.13,0.06 0.32,0.19 0.56,0.38l0.63 0.47 -0.76 0.3 -0.74 -0.52c-0.26,-0.18 -0.43,-0.3 -0.52,-0.34 -0.08,-0.04 -0.17,-0.06 -0.24,-0.05 -0.08,0 -0.19,0.03 -0.34,0.09l-0.13 0.05 0.51 1.33 -0.64 0.25zm-0.07 -2.09l0.48 -0.19c0.31,-0.12 0.49,-0.2 0.56,-0.26 0.07,-0.05 0.11,-0.12 0.13,-0.2 0.02,-0.09 0.01,-0.17 -0.03,-0.27 -0.04,-0.11 -0.1,-0.18 -0.19,-0.23 -0.08,-0.04 -0.18,-0.05 -0.29,-0.03 -0.05,0.02 -0.21,0.07 -0.47,0.17l-0.5 0.2 0.31 0.81zm6 -0.63l-0.67 0.34 -0.61 -0.55 -1.22 0.63 0.1 0.82 -0.65 0.33 -0.39 -3.64 0.65 -0.34 2.79 2.41zm-1.75 -0.62l-1 -0.91 0.17 1.34 0.83 -0.43zm2.01 0.39l-1.97 -2.79 0.56 -0.4 1.98 2.79 -0.57 0.4z"/>
  <path class="fil14" d="M22.46 13.28l5.17 0 0 10.06 8.09 0 0 3.28 -13.26 0 0 -13.34zm25.89 11.14l-5.86 0 -0.84 2.2 -5.28 0 6.3 -13.34 5.66 0 6.27 13.34 -5.41 0 -0.84 -2.2zm-1.09 -2.89l-1.83 -4.79 -1.84 4.79 3.67 0zm8.93 -8.25l6.82 0 2.6 8.12 2.61 -8.12 6.79 0 0 13.34 -4.23 0 0 -10.17 -3.27 10.17 -3.83 0 -3.26 -10.17 0 10.17 -4.23 0 0 -13.34zm22.09 0l8.6 0c1.87,0 3.28,0.35 4.21,1.06 0.93,0.71 1.4,1.73 1.4,3.04 0,1.35 -0.51,2.4 -1.53,3.16 -1.01,0.76 -2.57,1.14 -4.66,1.14l-2.83 0 0 4.94 -5.19 0 0 -13.34zm5.19 5.7l1.27 0c1.01,0 1.71,-0.14 2.12,-0.42 0.4,-0.27 0.6,-0.63 0.6,-1.06 0,-0.42 -0.17,-0.77 -0.53,-1.06 -0.35,-0.29 -1.01,-0.44 -1.98,-0.44l-1.48 0 0 2.98zm22.61 -5.7l5.16 0 0 7.94c0,0.79 -0.15,1.54 -0.46,2.23 -0.31,0.71 -0.79,1.32 -1.45,1.84 -0.66,0.53 -1.35,0.89 -2.07,1.11 -1,0.29 -2.21,0.44 -3.62,0.44 -0.81,0 -1.7,-0.05 -2.66,-0.14 -0.97,-0.08 -1.77,-0.27 -2.42,-0.54 -0.65,-0.27 -1.24,-0.65 -1.77,-1.14 -0.54,-0.5 -0.91,-1.01 -1.1,-1.54 -0.32,-0.85 -0.48,-1.6 -0.48,-2.26l0 -7.94 5.16 0 0 8.13c0,0.73 0.26,1.3 0.76,1.71 0.5,0.41 1.21,0.61 2.1,0.61 0.89,0 1.58,-0.2 2.09,-0.6 0.5,-0.41 0.76,-0.98 0.76,-1.72l0 -8.13zm8.62 0l4.83 0 6.28 7.36 0 -7.36 4.88 0 0 13.34 -4.88 0 -6.25 -7.33 0 7.33 -4.86 0 0 -13.34zm27.84 8.51l0 -2.77 8 0 0 5.67c-1.53,0.83 -2.88,1.4 -4.06,1.7 -1.17,0.3 -2.57,0.45 -4.18,0.45 -1.99,0 -3.61,-0.27 -4.86,-0.81 -1.25,-0.54 -2.22,-1.34 -2.91,-2.41 -0.69,-1.06 -1.03,-2.29 -1.03,-3.67 0,-1.46 0.37,-2.72 1.13,-3.8 0.75,-1.07 1.85,-1.89 3.3,-2.45 1.14,-0.43 2.67,-0.64 4.58,-0.64 1.85,0 3.23,0.13 4.15,0.4 0.92,0.26 1.68,0.68 2.28,1.24 0.61,0.56 1.06,1.27 1.36,2.13l-4.97 0.72c-0.21,-0.51 -0.56,-0.9 -1.05,-1.17 -0.49,-0.27 -1.11,-0.4 -1.88,-0.4 -1.13,0 -2.03,0.31 -2.7,0.94 -0.68,0.63 -1.01,1.62 -1.01,2.98 0,1.44 0.34,2.47 1.02,3.09 0.68,0.62 1.63,0.93 2.84,0.93 0.58,0 1.13,-0.07 1.65,-0.2 0.53,-0.14 1.13,-0.36 1.8,-0.68l0 -1.25 -3.46 0z"/>
 </g>
</svg>
