<svg width="1440" height="320" xmlns="http://www.w3.org/2000/svg">

 <g>
  <title>background</title>
  <rect fill="none" id="canvas_background" height="602" width="802" y="-1" x="-1"/>
 </g>
 <g>
  <title>Layer 1</title>
  <path id="svg_1" d="m0,160l48,26.7c48,26.3 144,80.3 240,69.3c96,-11 192,-85 288,-112c96,-27 192,-5 288,26.7c96,32.3 192,74.3 288,58.6c96,-16.3 192,-90.3 240,-128l48,-37.3l0,256l-48,0c-48,0 -144,0 -240,0c-96,0 -192,0 -288,0c-96,0 -192,0 -288,0c-96,0 -192,0 -288,0c-96,0 -192,0 -240,0l-48,0l0,-160z" fill="#ff56aa"/>
 </g>
</svg>